<?xml version="1.0" encoding="utf-8"?>
<!-- Generator: Adobe Illustrator 15.0.0, SVG Export Plug-In . SVG Version: 6.00 Build 0)  -->
<!DOCTYPE svg PUBLIC "-//W3C//DTD SVG 1.1//EN" "http://www.w3.org/Graphics/SVG/1.1/DTD/svg11.dtd">
<svg version="1.1" id="Layer_1" xmlns="http://www.w3.org/2000/svg" xmlns:xlink="http://www.w3.org/1999/xlink" x="0px" y="0px"
	 width="261.895px" height="275.789px" viewBox="0 0 261.895 275.789" enable-background="new 0 0 261.895 275.789"
	 xml:space="preserve">
<g>
	<path fill="#E1F3FC" d="M220.963,154.702c2.723-8.814,4.192-18.17,4.192-27.879c0-52.106-42.241-94.348-94.343-94.348
		c-52.108,0-94.349,42.241-94.349,94.348c0,9.709,1.469,19.065,4.193,27.879H220.963z"/>
	<g>
		<g>
			<path fill="#62A143" d="M114.419,45.54c0.035-1.646,0.096-3.796,1.167-5.169c0.562-0.721,1.035-0.797,1.744-0.38
				c2.729,1.604,2.023,6.311,1.236,8.694c-0.524,1.587,1.972,2.257,2.492,0.683c1.226-3.711,1.361-9.642-2.715-11.769
				c-1.543-0.806-3.291-0.421-4.474,0.814c-1.732,1.81-1.984,4.748-2.034,7.109C111.799,47.191,114.384,47.202,114.419,45.54
				L114.419,45.54z"/>
		</g>
	</g>
	<path fill-rule="evenodd" clip-rule="evenodd" fill="#62A143" d="M90.167,90.801c-4.611-0.639-6.388,1.556-11.001,0.918
		c2.702-2.971-2.352-3.742-5.499-3.668c2.781-5.136-4.653-6.375-6.416-11.915c16.756-3.058,22.066,0.765,31.164,8.25
		c2.438,2.355-1.763,1.31-1.833,3.665c-1.459-0.92-3.688-0.865-1.831-2.749C90.931,84.843,90.352,87.624,90.167,90.801z"/>
	<path fill-rule="evenodd" clip-rule="evenodd" fill="#AFD136" d="M62.758,139.121c2.146-1.923,6.393-4.498,7.24-7.408
		c0.583-2.004-0.276-5.419-2.95-4.212c-1.822,0.823-1.703,4.483-2.328,6.086c-0.89,2.288-2.415,3.897-3.42,6.014
		c0.719,0.007,1.133-0.283,1.684-0.681"/>
	<g>
		<polygon fill="#AFD136" points="41.977,158.249 48.781,174.054 66.097,197.481 85.427,210.511 174.752,208.688 186.283,197.481 
			201.563,182.203 217.797,159.87 		"/>
		<path fill="none" stroke="#27A8E0" stroke-width="8.6129" stroke-miterlimit="10" d="M35.761,123.768
			c0-52.107,42.241-94.348,94.348-94.348c52.102,0,94.343,42.241,94.343,94.348c0,52.1-42.241,94.341-94.343,94.341
			C78.002,218.109,35.761,175.868,35.761,123.768z"/>
	</g>
	<path fill="#AFD136" d="M58.412,164.673c0.821-5.278,4.084-8.13,9.404-11.318c3.259-1.952,6.641-3.11,6.863-6.599
		c-0.67-0.446-2.403-1.208-3.176-1.402c-2.028,2.764-3.82,7.128-7.674,8.447c-2.089-9.305-0.989-30.182-8.471-28.299
		c-10.445,3.586,7.681,17.366,3.792,24.359c-3.178-3.084-7.552-11.657-10.337-9.12c-5.189,3.943,1.847,8.907,5.238,13.406
		c1.772,2.352,7.042,11.835,4.485,12.18"/>
	<path fill="#39B44A" stroke="#FFFFFF" stroke-width="1.2919" stroke-miterlimit="10" d="M169.887,92.284
		c0.246-15.053-19.504-24.167-12.211-31.763c3.299-4.628,6.967,4.986,12.98,7.093c0.297-6.21-13.238-15.174-1.35-19.318
		c6.455-0.247,6.443,8.569,8.091,12.543c2.918-6.121-8.177-20.675,1.024-21.368c4.777-1.435,3.52,7.593,6.457,10.371
		c2.243-4.38,2.859-17.424,10.111-16.602c7.363,0.836,5.001,7.555,3.197,11.311c4.371,1.656,10.025-5.585,14.488,1.702
		c2.734,6.077-7.254,5.831-9.865,8.304c2.899,2.802,15.234-0.168,9.131,6.179c-4.277,3.999-7.75,4.657-9.186,5.333
		c-4.969,2.339,8.297,2.964,7.408,7.112c-7.409,10.965-14.792-2.384-16.299-0.592c-1.386,1.649,6.661,4.776,4.445,6.815
		c-3.861,3.734-8.4-0.324-11.26,2.075c-2.188,1.834,11.625-1.235,10.059,1.482c-3.244,5.629-7.557,1.273-10.371,5.333
		c-1.881,2.71-15.848,7.428-17.033,10.392c1.26-0.851,2.574-2.937,2.799-3.312"/>
	<path fill="#009348" d="M130.175,107.857c-2.194-8.682-14.058-18.959-22.097-26.831c6.455,1.146,13.901,5.302,20.17,7.608
		c-0.379-4.827-4.12-10.461-3.467-15.265c6.455,0.515,7.406,7.412,9.493,10.702c2.263-4.471-4.057-12.029-1.306-16.61
		c2.123,2.972,4.365,6.328,7.619,8.823c1.773-3.184-3.709-9.595,3.684-10.763c12.972-2.052,9.027,5.546,7.626,8.287
		c4.763-1.229,9.226,0.369,11.089,5.414c-0.614,2.978-5.362,1.575-7.715,3.225c3.218,2.509,10.687,2.444,10.729,9.257
		c-2.248-0.357-9.83-3.038-11.195-2.665c-4.736,1.288,3.276,4.72,5.387,7.19c-2.305-0.371-9.068-3.896-10.387-2.658
		c-1.211,1.141,4.179,4.615,4.91,5.994c-3.648-0.114-8.37-2.097-10.98-0.533c-1.996,1.196,0.836,3.515-1.456,4.735
		c-2.86,1.517-7.276-0.875-9.655,1.995c-1.591,1.916-1.063,4.896-1.93,7.086c1.171-0.529,2.262-2.018,2.447-2.287"/>
	<rect x="61.739" y="89.896" fill="#231F20" width="7.691" height="116.708"/>
	<g>
		<path fill="none" stroke="#231F20" stroke-width="5.271" stroke-miterlimit="10" d="M87.785,144.697H53.073
			c-1.933,0-3.514-1.579-3.514-3.51V85.545c0-1.933,1.582-3.514,3.514-3.514h40.38c1.933,0,3.514,1.582,3.514,3.514v10.431"/>
	</g>
	<path fill="#0090D5" d="M160.309,156.212c5.312,0.18,8.105-0.361,12.857-1.265c4.754-0.903,10.902,1.645,10.902,1.645v43.397
		H78.416v-43.777c0,0,7.825-1.265,11.459-1.265c3.634,0,3.634,1.265,9.503,1.265c5.87,0,7.267-1.625,13.418-1.625
		c6.149,0,10.622,1.625,16.213,1.625c5.585,0,5.024-0.725,11.733-1.265C151.797,154.056,150.44,155.877,160.309,156.212z"/>
	<g>
		<path fill="#FFFFFF" d="M136.674,182.963c0,0-8.218,8.89-33.109,2.889c0,0-7.166,6.685-8.615,5.481
			c-1.448-1.205,3.438-5.73,1.72-6.875c-1.72-1.146-3.656-3.403-2.865-5.156s8.594,2.291,8.594,2.291
			S123.949,172.142,136.674,182.963z"/>
		<circle fill="#26A9E0" cx="128.901" cy="182.519" r="0.849"/>
	</g>
	<g>
		<path fill="#FFFFFF" d="M134.336,168.489c0,0,16.163,6.383,31.225,3.873c0,0,6.729,4.617,7.531,3.515
			c0.804-1.101-3.013-5.021-1.506-6.024c1.506-1.004,3.039-3.624,2.51-4.518c-0.528-0.896-7.53,2.008-7.53,2.008
			S146.735,157.952,134.336,168.489z"/>
		<circle fill="#26A9E0" cx="142.338" cy="167.896" r="0.826"/>
	</g>
	<g>
		<g>
			<path fill="#0090D5" d="M219.928,255.263H42.909c-5.14,0-9.323-4.184-9.323-9.324v-32.637c0-5.141,4.183-9.325,9.323-9.325
				h177.019c5.143,0,9.324,4.185,9.324,9.325v32.637C229.252,251.079,225.071,255.263,219.928,255.263z"/>
		</g>
	</g>
	<g>
		<path fill-rule="evenodd" clip-rule="evenodd" fill="#0090D5" d="M42.624,248.337c-1.441,0-2.616-1.176-2.616-2.617v-32.638
			c0-1.442,1.175-2.617,2.616-2.617h177.019c1.442,0,2.616,1.175,2.616,2.617v32.638c0,1.441-1.174,2.617-2.616,2.617H42.624z"/>
	</g>
	<g>
		<path fill="#FFFFFF" d="M61.701,241.01c-3.161,0-6.028-0.955-8.381-3.528c-2.021-2.242-2.94-5.587-2.94-9.227
			c0-3.198,0.515-5.624,1.764-7.939c2.169-4.007,5.881-5.808,10.366-5.808c2.61,0,5.367,0.734,6.543,1.874l-2.794,4.853
			c-1.139-0.883-2.426-1.36-3.823-1.36c-1.14,0-2.206,0.294-2.867,0.992c-1.25,1.287-1.654,2.61-1.654,5.624
			c0,4.228,0.184,6.249,1.25,7.499c0.846,0.992,1.912,1.617,3.271,1.617c1.654,0,2.978-0.404,4.411-1.69l2.83,4.484
			C68.06,239.907,65.45,241.01,61.701,241.01z"/>
		<path fill="#FFFFFF" d="M82.326,240.569v-12.461c0-1.544-0.073-1.985-1.434-1.985c-0.809,0-1.728,0.625-2.242,1.176v13.271h-6.396
			v-21.21c0-1.36-0.11-3.455-0.478-4.705l6.469-1.103c0.294,1.323,0.404,2.867,0.404,4.447v3.015c0,0.771-0.037,1.14-0.037,1.544
			c0.956-0.883,2.353-1.434,4.411-1.434c2.94,0,5.697,0.956,5.697,5.551v13.895H82.326z"/>
		<path fill="#FFFFFF" d="M96.665,220.205c-1.985,0-3.639-1.617-3.639-3.603S94.718,213,96.776,213c2.022,0,3.603,1.617,3.603,3.603
			S98.724,220.205,96.665,220.205z M93.504,240.569v-18.674l6.396-0.588v19.262H93.504z"/>
		<path fill="#FFFFFF" d="M114.752,240.569v-12.131c0-2.059-0.662-2.059-1.581-2.059c-0.478,0-1.213,0.331-2.095,1.104v13.086
			h-6.396v-12.057c0-2.279-0.11-4.338-0.588-6.359l5.881-0.992c0.147,0.44,0.331,1.176,0.368,1.764
			c1.25-0.919,2.977-1.801,5.477-1.801c4.448,0,5.33,2.609,5.33,5.22v14.226H114.752z"/>
		<path fill="#FFFFFF" d="M137.876,241.341c-0.919-0.294-2.058-1.286-2.353-1.874c-0.919,0.771-2.499,1.58-4.741,1.58
			c-4.705,0-6.506-2.794-6.506-6.176c0-3.602,3.125-6.175,8.417-6.175c0.258,0,0.883,0,1.066,0.036v-1.176
			c0-1.103-0.147-1.765-1.544-1.765c-2.132,0-3.786,0.772-5.403,1.985l-2.316-3.97c2.353-1.434,5.403-2.684,8.528-2.684
			c3.603,0,6.139,1.213,6.837,3.455c0.258,0.846,0.294,1.544,0.294,2.94l-0.073,6.543c0,1.581,0.146,2.867,1.471,3.713
			L137.876,241.341z M133.76,232.703c-0.074,0-0.184,0-0.258,0c-2.462,0-3.014,1.029-3.014,2.095c0,1.103,0.662,1.838,1.764,1.838
			c0.552,0,1.287-0.331,1.508-0.625V232.703z"/>
		<path fill="#FFFFFF" d="M163.867,240.569v-11.727c0-2.536-0.257-2.683-1.359-2.683c-0.404,0-1.397,0.33-2.059,0.734v13.675h-5.992
			v-11.763c0-2.5-0.073-2.757-1.286-2.757c-0.588,0-1.544,0.33-2.059,0.735v13.784h-6.212v-12.057c0-2.279-0.11-4.338-0.588-6.359
			l5.881-0.992c0.184,0.661,0.331,1.139,0.368,1.838c1.323-1.177,2.977-1.875,4.595-1.875c2.021,0,3.271,0.846,4.264,2.059
			c1.507-1.36,3.234-2.059,5.44-2.059c2.646,0,5.146,0.882,5.146,5.624v13.821H163.867z"/>
		<path fill="#FFFFFF" d="M183.87,241.047c-1.14,0-2.096-0.257-2.978-0.625c0.184,0.515,0.294,1.36,0.294,2.904v3.896l-6.396,1.728
			v-20.438c0-2.279-0.11-4.338-0.588-6.359l5.882-0.992c0.184,0.514,0.33,1.103,0.404,1.69c0.404-0.771,2.132-1.728,3.97-1.728
			c6.653,0,7.462,5.477,7.462,9.006C191.92,237.519,188.98,241.047,183.87,241.047z M183.171,226.05
			c-1.028,0-1.653,0.44-1.984,0.955v8.491c0.073,0.294,0.588,0.515,1.213,0.515c1.507,0,2.684-0.33,2.684-5.33
			C185.083,227.704,184.863,226.05,183.171,226.05z"/>
		<path fill="#FFFFFF" d="M207.731,241.341c-0.919-0.294-2.059-1.286-2.353-1.874c-0.919,0.771-2.5,1.58-4.742,1.58
			c-4.705,0-6.506-2.794-6.506-6.176c0-3.602,3.124-6.175,8.418-6.175c0.257,0,0.882,0,1.065,0.036v-1.176
			c0-1.103-0.146-1.765-1.544-1.765c-2.132,0-3.786,0.772-5.403,1.985l-2.315-3.97c2.353-1.434,5.403-2.684,8.527-2.684
			c3.603,0,6.139,1.213,6.838,3.455c0.257,0.846,0.294,1.544,0.294,2.94l-0.074,6.543c0,1.581,0.147,2.867,1.471,3.713
			L207.731,241.341z M203.614,232.703c-0.073,0-0.184,0-0.257,0c-2.463,0-3.015,1.029-3.015,2.095c0,1.103,0.662,1.838,1.765,1.838
			c0.552,0,1.286-0.331,1.507-0.625V232.703z"/>
	</g>
	<path fill-rule="evenodd" clip-rule="evenodd" fill="#F6E207" d="M126.721,50.064c0.015-4.234,2.383,0.786,2.75,1.834
		c2.5,0.083,1.847-1.527,3.663,0c-0.267,0.562-2.275,3.528,0,3.666c0,0.307,0,0.611,0,0.917c-0.051,0.559-0.135,1.085-0.914,0.917
		c-2.1-3.755-1.221,2.923-2.749,2.75c0-0.306,0-0.611,0-0.917c0-0.917,0-1.833,0-2.75c-0.711,0.205-1.807,0.026-1.833,0.917
		c-1.496-2.473,0.105-3.558-1.833-6.416C126.78,51.021,128.134,50.55,126.721,50.064z"/>
	<path fill-rule="evenodd" clip-rule="evenodd" fill="#F6E207" d="M132.22,59.231c2.394,0.259,3.938-0.335,3.663-2.75
		c1.443,0.083,0.718,2.338,2.75,1.833c1.213,2.296-4.269,2.224-0.918,3.667c0,0.917,0,1.834,0,2.75
		c-4.702,0.076-1.77,3.3-6.413-1.833c0.134-1.083,1.633-2.078,0-2.75C131.357,59.588,131.442,59.063,132.22,59.231z"/>
	<path fill-rule="evenodd" clip-rule="evenodd" fill="#A1B684" d="M118.472,62.613c1.522,2.181,1.522,10.654,0,12.834
		C118.472,71.17,118.472,66.893,118.472,62.613z"/>
	<path fill-rule="evenodd" clip-rule="evenodd" fill="#A1B684" d="M101.972,77.281c0,0.917,0,1.833,0,2.75
		c-1.915,0.388-2.428-0.628-3.664-0.916C98.529,77.501,99.883,77.024,101.972,77.281z"/>
	<path fill-rule="evenodd" clip-rule="evenodd" fill="#62A143" stroke="#FFFFFF" stroke-width="0.6077" stroke-miterlimit="10" d="
		M133.134,55.564c6.058-3.412,7.882-11.06,14.666-13.749c-0.128,3.421,6.337-0.47,9.166,0c-0.015,1.821-2.501,1.166-1.833,3.666
		c6.621-0.511,10.683,4.14,13.744,7.19c-3.008,1.269-7.307,0.471-11.911,0.144c-0.361,1.576,1.359,2.35,0,2.749
		c-7.173-0.466-10.247,3.036-17.257-2.133c-2.016,1.042-4.838,4.108-7.291,4.71C132.418,57.834,133.134,55.871,133.134,55.564z"/>
	<path fill-rule="evenodd" clip-rule="evenodd" fill="#62A143" d="M117.228,37.783c4.557-5.254,6.688-19.575,12.17-24.393
		c1.032,3.265,5.805-2.576,8.625-3.086c0.602,1.719-1.962,1.94-0.49,4.069c6.063-2.711,10.024-0.984,13.934,0.858
		c-2.404,2.208-5.293,4.188-9.738,5.43c0.19,1.607,2.072,1.754,0.926,2.589c-6.912,1.976-9.844,6.09-18.184,3.584
		c-1.546,1.659-3.767,10.771-5.876,12.162C118.492,38.71,117.331,38.07,117.228,37.783z"/>
	<path fill-rule="evenodd" clip-rule="evenodd" fill="#A1B684" d="M129.471,60.147c1.528,0.173,0.649-6.505,2.749-2.75
		c0,0.611,0,1.223,0,1.833c-0.778-0.168-0.863,0.357-0.917,0.917c1.633,0.672,0.134,1.667,0,2.75
		C129.846,61.977,127.616,62.031,129.471,60.147z"/>
	<path fill-rule="evenodd" clip-rule="evenodd" fill="#62A143" stroke="#FFFFFF" stroke-width="0.882" stroke-miterlimit="10" d="
		M119.388,109.361c-0.611,0-1.222,0-1.833,0c-1.492-11.074,5.291-24.805-7.332-24.748c0.618-2.13,3.045-2.454,3.667-4.583
		c1.683,1.373,2.285,3.826,4.583,4.583c0-3.055-0.94-6.352-0.94-9.406c2.025-2.026,0.405-8.508,0.94-12.594
		c-3.979-9.487,0.27,4.902-0.917-2.466c0.611,0-0.229-0.741,0.383-0.741c-3.477-2.159-1.178-2.587,0.607-1.013
		c4.761,2.126,7.305,3.021,10.926,0.837c0,0.305,0,0.61,0,0.917c-1.855,1.883,0.375,1.83,1.832,2.75
		c4.643,5.133,1.71,1.909,6.413,1.833c0-0.916,0-1.833,0-2.75c9.299,3.794,8.256,8.383,10.085,20.166
		c-3.004-1.58-4.329-4.836-7.333-6.417c-0.145,1.079,0.158,2.602-0.916,2.75c-4.078-4.243-6.626-7.462-9.163-14.665
		c-10.611,0.387-9.412-3.193-9.167,1.549c0.528,5.904-1.107,18.81,0.918,20.166"/>
	<path fill-rule="evenodd" clip-rule="evenodd" fill="#62A143" d="M145.967,76.364"/>
	<path fill-rule="evenodd" clip-rule="evenodd" fill="#62A143" stroke="#FFFFFF" stroke-width="0.6077" stroke-miterlimit="10" d="
		M133.134,51.898c-1.816-1.527-1.163,0.083-3.663,0c-0.367-1.048-2.735-6.068-2.75-1.834c-4.432-3.04-0.725-8.53-2.75-13.749
		c1.241,0.288,1.75,1.305,3.667,0.916c1.762-1.905,1.063-6.271,2.75-8.25c1.421,3.61,2.418,9.954,5.495,9.165
		C134.765,44.274,137.287,48.58,133.134,51.898z"/>
	<path fill="none" stroke="#231F20" stroke-width="7.1786" stroke-miterlimit="10" d="M186.123,149.294v43.852
		c0,3.865-4.308,7.028-9.576,7.028H85.483c-5.266,0-9.577-3.163-9.577-7.028v-43.852"/>
	<ellipse fill-rule="evenodd" clip-rule="evenodd" fill="#EB2026" cx="52.965" cy="66.952" rx="8.964" ry="7.141"/>
	<ellipse fill-rule="evenodd" clip-rule="evenodd" fill="#EB2026" cx="80.565" cy="52.519" rx="9.013" ry="7.293"/>
	<ellipse fill-rule="evenodd" clip-rule="evenodd" fill="#EB2026" cx="152.166" cy="34.158" rx="10.331" ry="7.858"/>
	<path fill="#AFD136" d="M198.958,167.955c0.776-6.302-1.497-10.7-5.637-16.208c-2.536-3.373-5.422-5.886-4.603-9.935
		c0.773-0.271,2.652-0.527,3.449-0.477c6.182,2.635,1.539,9.463,4.831,12.327c4.749-9.863,8.947-32.779,16.466-29.25
		c7.065,0.118-12.477,17.073-10.83,26.408c3.947-2.388,5.742-8.063,13.338-7.153c3.789,6.325-5.165,9.908-9.735,13.837
		c-2.389,2.052-10.229,10.997-7.888,12.291"/>
	<g>
		<path fill-rule="evenodd" clip-rule="evenodd" fill="#CD2168" d="M172.528,89.784c0,0,9.325-31.372,23.211-41.249
			c-9.371,13.193-19.045,31.797-19.764,42.515C175.255,101.769,172.528,89.784,172.528,89.784z"/>
		<path fill-rule="evenodd" clip-rule="evenodd" fill="#CD2168" d="M189.506,57.534c0,0,7.102-0.127,11.604,0.347
			c-6.202,1.279-13.1,1.391-13.1,1.391L189.506,57.534z"/>
		<path fill-rule="evenodd" clip-rule="evenodd" fill="#CD2168" d="M184.436,64.854c0,0,9.524,2.011,13.58,2.105
			c-7.018,1.516-15.113-0.592-15.113-0.592L184.436,64.854z"/>
		<path fill-rule="evenodd" clip-rule="evenodd" fill="#CD2168" d="M184.959,60.409c0,0-2.544-6.695-3.631-10.601
			c3.488,6.273,5.525,11.628,5.525,11.628L184.959,60.409z"/>
		<path fill-rule="evenodd" clip-rule="evenodd" fill="#CD2168" d="M179.93,75.004c0,0,7.145-0.491,11.202-0.397
			c-7.018,1.516-12.733,1.909-12.733,1.909L179.93,75.004z"/>
		<polyline fill-rule="evenodd" clip-rule="evenodd" fill="#CD2168" points="178.629,75.006 173.7,62.218 179.523,70.674 
			179.535,75.415 		"/>
	</g>
	<g>
		<path fill="#231F20" d="M209.571,89.611c0,1.102-1.125,2.003-2.499,2.003H56.881c-1.375,0-2.5-0.901-2.5-2.003
			s1.125-2.003,2.5-2.003h150.191C208.446,87.608,209.571,88.509,209.571,89.611z"/>
	</g>
	<linearGradient id="SVGID_1_" gradientUnits="userSpaceOnUse" x1="76.5613" y1="112.3916" x2="186.4446" y2="112.3916">
		<stop  offset="0.1472" style="stop-color:#757679"/>
		<stop  offset="1" style="stop-color:#FFFFFF"/>
	</linearGradient>
	<path fill="url(#SVGID_1_)" stroke="#231F20" stroke-width="5.7712" stroke-miterlimit="10" d="M186.445,90.407v35.321
		c0,4.757-4.854,8.649-10.787,8.649H87.35c-5.934,0-10.789-3.892-10.789-8.649V90.407H186.445z"/>
	<path fill-rule="evenodd" clip-rule="evenodd" fill="#62A143" d="M70.335,64.073c-6.061-3.414-7.884-11.061-14.669-13.75
		c0.129,3.422-6.337-0.468-9.165,0c0.013,1.822,2.5,1.167,1.833,3.667c-6.622-0.511-9.77,2.45-12.833,5.501
		c3.008,1.268,6.395,2.16,11,1.833c0.36,1.577-1.36,2.35,0,2.75c7.172-0.466,11.322,2.418,18.333-2.75
		c2.014,1.04,3.045,3.065,5.501,3.666C70.335,64.684,70.335,64.378,70.335,64.073z"/>
	<path fill-rule="evenodd" clip-rule="evenodd" fill="#62A143" stroke="#FFFFFF" stroke-width="0.8613" stroke-miterlimit="10" d="
		M107.719,44.105c-4.785-5.046-4.274-12.892-9.964-17.461c-0.885,3.306-6.777-2.316-9.618-2.702
		c-0.526,1.745,2.046,1.851,0.67,4.044c-6.176-2.44-10.058-0.539-13.882,1.474c2.5,2.099,5.473,3.949,9.971,4.993
		c-0.121,1.613-1.993,1.845-0.811,2.628c6.991,1.667,9.455,6.3,17.677,3.427c1.617,1.588,2.006,3.827,4.176,5.125
		C106.027,45.341,107.63,44.398,107.719,44.105z"/>
	<path fill-rule="evenodd" clip-rule="evenodd" fill="#62A143" d="M93.723,73.613c-4.611-0.639-6.388,1.556-11.001,0.918
		c2.702-2.971-2.353-3.742-5.499-3.668c2.781-5.137-4.654-6.375-6.416-11.915c16.756-3.058,22.066,0.765,31.164,8.25
		c2.438,2.355-1.762,1.31-1.833,3.665c-1.459-0.92-3.688-0.866-1.831-2.749C94.488,67.656,93.907,70.437,93.723,73.613z"/>
	<path fill-rule="evenodd" clip-rule="evenodd" fill="#EB2026" d="M108.39,72.697c3.008,1.27,5.603,2.951,5.5,7.333
		c-0.621,2.129-2.231,3.481-3.667,4.583c-8.693,5.988-20.341-3.533-17.606-11.433c0.184-3.177,4.254-7.697,9.355-5.982
		c1.173,0.049,4.974,3.583,4.583,5.499"/>
	<path fill-rule="evenodd" clip-rule="evenodd" fill="#62A143" d="M91.698,56.598c-4.611-0.638-6.388,1.556-11,0.918
		c2.702-2.971-2.354-3.743-5.5-3.667c2.782-5.137-4.653-6.375-6.416-11.916c16.757-3.058,22.066,0.765,31.164,8.25
		c2.438,2.356,1.25,1.602,1.18,3.957c-1.459-0.92-6.699-1.157-4.843-3.041C92.461,50.64,91.882,53.421,91.698,56.598z"/>
	<path fill="#62A143" d="M105.986,72.776c-1.823-1.621-0.81-4.052-4.254-3.242c1.823,1.823,2.836,2.836,4.456,5.266
		c1.62,0.204,1.62-0.606,3.646,0.407c1.216-2.026-1.215-1.419-1.62-2.836"/>
	<path fill="#62A143" d="M121.311,30.802c-3.593-2.172-4.821-1.115-7.415,1.783c2.569-0.112,4.574-0.279,7.334,1.942
		c1.588-0.837,1.078-1.569,3.542-1.931c-0.179-2.592-0.951-2.274-2.209-3.298L121.311,30.802z"/>
	<rect x="85.661" y="139.417" fill="#231F20" width="5.577" height="32.391"/>
	<circle fill="#FFFFFF" cx="147.787" cy="182.382" r="1.026"/>
	<circle fill="#FFFFFF" cx="112.677" cy="165.047" r="1.026"/>
	<circle fill="#FFFFFF" cx="120.677" cy="161.046" r="1.026"/>
	<circle fill="#FFFFFF" cx="173.567" cy="189.186" r="1.026"/>
	<circle fill="#FFFFFF" cx="145.634" cy="166.562" r="1.025"/>
	<path fill="#62A143" d="M76.007,63.862c-3.174,0-5.757-0.152-8.462,1.475c-1.072,0.644-5.587,3.663-3.975,5.002
		c-2.464,2.062-2.373,5.123-2.764,8.036c0.676-0.578,2.085-0.927,2.597-1.594c0.798-1.038,0.284-2.507,0.604-3.738
		c0.663,0.916,2.135,1.732,3.265,2.082c-0.428-1.754-1.217-2.67-1.995-4.212c-0.848-1.679-0.213-2.658,1.464-3.757
		c2.444-1.608,7.874-2.487,10.814-1.45c-0.777-0.614-1.423-1.439-1.953-2.249"/>
	<path fill="#62A143" d="M109.024,60.116c0.149,3.782,2.776,5.925-0.075,9.04c-1.511,1.65-4.628,1.714-2.963,4.176
		c1.923-1.111,3.425-3.692,5.461-3.75c2.564-0.077,5.758,5.229,8.159,5.991c1.239-3.286-3.046-4.542-5.016-6.931
		c-2.249-2.727-3.546-5.951-4.046-9.437"/>
	<path fill="#62A143" d="M103.961,45.227c3.039,0.861,3.646,6.28,3.646,6.28l7.697,1.417l4.051-1.417l0.033-3.274
		c0,0-0.56-4.65-5.351-5.891C107.202,40.568,103.961,45.227,103.961,45.227z"/>
	<path fill-rule="evenodd" clip-rule="evenodd" fill="#EB2026" d="M109.306,48.232c1.069,0.153,0.996,1.448,0.917,2.75
		c2.087,0.255,3.446-0.222,3.667-1.833c0.918,0.002,1.09-0.743,1.833-0.917c-0.164,4.088,3.095,2.236,3.666,0
		c9.993,4.591,2.058,13.402-3.376,13.402c-6.381,1.221-19.343-2.202-16.103-12.762c0.807-2.555,2.996-3.682,5.731-4.308
		c0.578,2.267,0.219,3.584,3.665,4.583C109.306,48.842,109.306,48.537,109.306,48.232z"/>
	
		<line fill="#231F20" stroke="#231F20" stroke-width="3.4452" stroke-linecap="round" stroke-miterlimit="10" x1="97.524" y1="150.958" x2="83.141" y2="150.958"/>
	<path fill-rule="evenodd" clip-rule="evenodd" fill="#AFD136" d="M203.516,141.238c0-2.879,0.918-7.761-0.684-10.334
		c-1.102-1.771-4.217-3.413-5.104-0.616c-0.604,1.906,2.2,4.261,2.978,5.796c1.107,2.19,1.288,4.397,2.193,6.558
		c0.486-0.529,0.546-1.031,0.617-1.709"/>
	<rect x="193.311" y="89.896" fill="#231F20" width="7.689" height="114.04"/>
	<path fill="#62A143" d="M121.331,32.997c0.612-4.985,0.849-9.904-2.338-14.135c-3.312-4.392-8.83-2.532-12.75-0.121
		c-1.008,0.621-0.715,1.981,0.312,2.362c1.028,0.379,1.911,0.915,2.887,1.392c0.398,0.194,0.908,0.265,1.3-0.004
		c1.25-0.857,2.458-1.344,3.438-0.43c0.509,0.474,1.022,1.392,1.022,1.392s0.229-1.848-0.608-2.532
		c-1.484-1.215-3.505-1.794-5.16-0.659c0.433,0,0.867-0.002,1.299-0.004c-1.174-0.574-2.263-1.191-3.494-1.646
		c0.104,0.787,0.208,1.574,0.312,2.361c3.711-2.282,7.994-3.657,10.3,0.978c1.808,3.632,2.286,8.073,1.808,11.961
		c-0.203,1.654,0.153,0.683,1.14,0.379L121.331,32.997z"/>
	<g>
		<path fill="none" stroke="#FFFFFF" stroke-width="3.776" stroke-linecap="round" stroke-miterlimit="10" d="M87.779,101.539
			v19.316c0,2.077,1.699,3.776,3.776,3.776h49.268"/>
	</g>
	<circle fill="#FFFFFF" cx="148.004" cy="124.632" r="2.026"/>
	<path fill="none" stroke="#62A143" stroke-width="1.8945" stroke-miterlimit="10" d="M106.728,19.035
		c3.869,2.008,0.149,6.493-2.748,6.943c-5.083,0.791-4.23-5.07-0.309-4.888c0.01,0.572,0.318,1.035,0.352,1.572
		c-0.552,0.076-0.67,0.203-1.024,0.376c0.23,0.503,0.536,0.393,1.056,0.675"/>
	<path fill="#62A143" d="M123.037,29.716c0,0,2.562,1.226,4.344-0.557c0,0,0.223,2.562-3.342,2.785
		C120.475,32.167,123.037,29.716,123.037,29.716z"/>
	<g>
		<path fill="#62A143" d="M152.973,26.338c-3.523-2.13-4.729-1.095-7.273,1.749c2.52-0.11,4.486-0.274,7.193,1.905
			c1.559-0.822,1.059-1.539,3.476-1.894c-0.177-2.542-0.934-2.231-2.167-3.235L152.973,26.338z"/>
		<path fill="#62A143" d="M139.479,20.575c0,0,6.665-1.202,9.287-0.11c2.621,1.093,4.808,2.841,5.354,6.337l-1.201,0.874
			c0,0-2.076-3.824-3.061-4.698c-0.982-0.874-0.984-1.639-4.369-1.639c-3.387,0-6.774,0.328-6.774,0.328L139.479,20.575z"/>
		<path fill="#62A143" d="M154.666,25.273c0,0,2.512,1.202,4.261-0.547c0,0,0.219,2.513-3.278,2.732
			C152.153,27.677,154.666,25.273,154.666,25.273z"/>
	</g>
</g>
</svg>
