<?xml version="1.0" encoding="utf-8"?>
<!-- Generator: Adobe Illustrator 15.0.0, SVG Export Plug-In . SVG Version: 6.00 Build 0)  -->
<!DOCTYPE svg PUBLIC "-//W3C//DTD SVG 1.1//EN" "http://www.w3.org/Graphics/SVG/1.1/DTD/svg11.dtd">
<svg version="1.1" id="Layer_1" xmlns="http://www.w3.org/2000/svg" xmlns:xlink="http://www.w3.org/1999/xlink" x="0px" y="0px"
	 width="261.895px" height="275.789px" viewBox="0 0 261.895 275.789" enable-background="new 0 0 261.895 275.789"
	 xml:space="preserve">
<g>
	<g>
		<g>
			<defs>
				<path id="SVGID_1_" d="M61.057,135.555c0-43.764,35.479-79.243,79.24-79.243c43.771,0,79.251,35.479,79.251,79.243
					c0,43.761-35.479,79.242-79.251,79.242C96.535,214.797,61.057,179.316,61.057,135.555z"/>
			</defs>
			<clipPath id="SVGID_2_">
				<use xlink:href="#SVGID_1_"  overflow="visible"/>
			</clipPath>
			<g clip-path="url(#SVGID_2_)">
				
					<circle opacity="0.42" fill="none" stroke="#FFFFFF" stroke-width="1.2038" stroke-linecap="round" enable-background="new    " cx="165.068" cy="67.39" r="4.341"/>
				
					<line fill="none" stroke="#97CDEF" stroke-width="1.4149" stroke-linecap="round" x1="160.976" y1="63.764" x2="154.151" y2="56.257"/>
				
					<line fill="none" stroke="#97CDEF" stroke-width="1.4149" stroke-linecap="round" x1="170.206" y1="66.892" x2="179.172" y2="65.641"/>
			</g>
		</g>
	</g>
	
		<linearGradient id="SVGID_3_" gradientUnits="userSpaceOnUse" x1="125.241" y1="123.6191" x2="215.4397" y2="123.6191" gradientTransform="matrix(1 0 0 -1 -0.0552 275.6484)">
		<stop  offset="0" style="stop-color:#EFE805"/>
		<stop  offset="0.17" style="stop-color:#C0DA17"/>
		<stop  offset="0.3687" style="stop-color:#8FCC29"/>
		<stop  offset="0.5574" style="stop-color:#69C137"/>
		<stop  offset="0.7308" style="stop-color:#4DB942"/>
		<stop  offset="0.8835" style="stop-color:#3DB548"/>
		<stop  offset="0.9992" style="stop-color:#37B34A"/>
	</linearGradient>
	<path opacity="0.88" fill="url(#SVGID_3_)" enable-background="new    " d="M125.186,144.725c0,0,32.877-11.881,88.929-2.178
		c4.356,5.348-3.895,22.777-3.895,22.777L125.186,144.725z"/>
	<path fill="#6ACEF5" stroke="#FFFFFF" stroke-width="3.1385" stroke-miterlimit="10" d="M174.221,152.633
		c5.796-0.859,24.525-2.52,36.9-1.846c4.364,0.24,11.112,0.99,11.112,0.99l-3.167,17.111l-55.646-13.523
		C163.421,155.365,168.426,153.494,174.221,152.633z"/>
	
		<radialGradient id="SVGID_4_" cx="65.0569" cy="148.0713" r="141.5968" gradientTransform="matrix(1 0 0 -1.1999 -0.0552 331.2151)" gradientUnits="userSpaceOnUse">
		<stop  offset="0" style="stop-color:#D6DE23"/>
		<stop  offset="0.1045" style="stop-color:#B1D42C"/>
		<stop  offset="0.2299" style="stop-color:#8CCA35"/>
		<stop  offset="0.3613" style="stop-color:#6DC23D"/>
		<stop  offset="0.4983" style="stop-color:#55BB43"/>
		<stop  offset="0.6434" style="stop-color:#44B747"/>
		<stop  offset="0.8019" style="stop-color:#3AB449"/>
		<stop  offset="0.9992" style="stop-color:#37B34A"/>
	</radialGradient>
	<path fill="url(#SVGID_4_)" stroke="#FFFFFF" stroke-width="3.3686" stroke-miterlimit="10" d="M33.945,158.941
		c0,0,78.831-35.116,184.726,10.74l-11.225,28.233L43.451,208.373L33.945,158.941z"/>
	<g>
		<g>
			<path fill="#005D3E" d="M186.613,112.62c-7.113,11.551-13.134,23.862-18.665,36.229c-10.837,24.229-19.488,50.155-21.44,76.764
				c-0.075,1.039,2.401,3.017,2.404,2.978c1.95-26.582,10.628-52.299,21.355-76.528c5.479-12.381,11.557-24.688,18.664-36.229
				C189.436,115.012,186.668,112.529,186.613,112.62L186.613,112.62z"/>
		</g>
	</g>
	<g>
		<g>
			<path fill="#005D3E" d="M162.191,66.842c-4.864,12.034-7.634,25.104-10.203,37.768c-7.77,38.296-10.368,77.632-10.562,116.642
				c-0.012,2.381,3.903,1.872,3.914-0.385c0.191-38.422,2.812-77.016,10.275-114.756c1.885-9.525,4.117-18.996,6.886-28.304
				c0.736-2.475,1.521-4.936,2.373-7.373c0.205-0.586,0.97-2.612,0.79-2.168C166.607,65.931,163.05,64.716,162.191,66.842
				L162.191,66.842z"/>
		</g>
	</g>
	<path fill="none" stroke="#0090D5" stroke-width="9.0101" stroke-miterlimit="10" d="M32.762,145.6
		c0-52.667,42.693-95.361,95.354-95.361c52.662,0,95.352,42.693,95.352,95.361c0,52.664-42.689,95.357-95.352,95.357
		S32.762,198.264,32.762,145.6z"/>
	<g>
		<g>
			<g>
				<polygon fill="#FFF100" points="65.051,132.244 66.001,133.385 66.266,134.564 65.26,135.568 65.828,136.846 65.244,137.883 
					65.202,139.084 64.702,140.135 64.091,141.122 63.096,141.876 63.078,143.206 61.652,143.587 61.621,145.004 60.305,145.35 
					59.765,146.395 59.032,147.279 58.009,147.816 56.713,147.9 55.942,148.741 54.84,149.016 53.779,149.309 52.951,150.193 
					52.104,151.234 50.851,150.943 49.791,151.37 48.581,150.732 47.563,151.889 46.418,150.812 45.321,151.086 44.243,150.833 
					43.084,151.141 41.797,151.727 40.91,150.633 39.819,150.369 38.549,150.479 37.43,150.134 36.873,148.771 35.619,148.659 
					35.281,147.202 33.886,147.175 33.364,146.079 32.095,145.754 32.204,144.168 30.594,144.021 30.263,142.867 29.409,142.062 
					29.562,140.708 29.232,139.656 27.823,139.012 27.923,137.782 27.999,136.611 28.187,135.461 27.161,134.496 26.509,133.404 
					27.326,132.244 27.145,131.121 27.582,130.041 27.952,128.986 28.321,127.952 27.328,126.526 28.558,125.741 28.848,124.662 
					29.598,123.794 29.942,122.728 29.72,121.258 31.097,120.834 31.544,119.761 32.041,118.677 33.197,118.226 33.951,117.384 
					35.253,117.242 35.515,115.665 36.723,115.448 37.527,114.536 38.612,114.144 39.948,114.463 41.04,114.28 41.99,113.565 
					43.038,113.082 44.177,113.084 45.278,112.66 46.418,112.329 47.568,112.52 48.667,113.007 49.856,112.759 51.018,112.843 
					51.763,114.399 52.901,114.442 54.206,114.197 55.148,114.871 55.962,115.717 56.831,116.415 57.696,117.101 58.648,117.673 
					59.506,118.375 60.398,119.059 60.936,120.066 62.028,120.626 62.489,121.677 62.484,122.972 63.917,123.457 64.798,124.316 
					65.178,125.417 64.626,126.792 65.156,127.803 65.379,128.9 66.164,129.936 65.146,131.152 				"/>
				<polygon fill="none" stroke="#F05A28" stroke-width="4.1315" stroke-miterlimit="10" points="65.051,132.244 66.001,133.385 
					66.266,134.564 65.26,135.568 65.828,136.846 65.244,137.883 65.202,139.084 64.702,140.135 64.091,141.122 63.096,141.876 
					63.078,143.206 61.652,143.587 61.621,145.004 60.305,145.35 59.765,146.395 59.032,147.279 58.009,147.816 56.713,147.9 
					55.942,148.741 54.84,149.016 53.779,149.309 52.951,150.193 52.104,151.234 50.851,150.943 49.791,151.37 48.581,150.732 
					47.563,151.889 46.418,150.812 45.321,151.086 44.243,150.833 43.084,151.141 41.797,151.727 40.91,150.633 39.819,150.369 
					38.549,150.479 37.43,150.134 36.873,148.771 35.619,148.659 35.281,147.202 33.886,147.175 33.364,146.079 32.095,145.754 
					32.204,144.168 30.594,144.021 30.263,142.867 29.409,142.062 29.562,140.708 29.232,139.656 27.823,139.012 27.923,137.782 
					27.999,136.611 28.187,135.461 27.161,134.496 26.509,133.404 27.326,132.244 27.145,131.121 27.582,130.041 27.952,128.986 
					28.321,127.952 27.328,126.526 28.558,125.741 28.848,124.662 29.598,123.794 29.942,122.728 29.72,121.258 31.097,120.834 
					31.544,119.761 32.041,118.677 33.197,118.226 33.951,117.384 35.253,117.242 35.515,115.665 36.723,115.448 37.527,114.536 
					38.612,114.144 39.948,114.463 41.04,114.28 41.99,113.565 43.038,113.082 44.177,113.084 45.278,112.66 46.418,112.329 
					47.568,112.52 48.667,113.007 49.856,112.759 51.018,112.843 51.763,114.399 52.901,114.442 54.206,114.197 55.148,114.871 
					55.962,115.717 56.831,116.415 57.696,117.101 58.648,117.673 59.506,118.375 60.398,119.059 60.936,120.066 62.028,120.626 
					62.489,121.677 62.484,122.972 63.917,123.457 64.798,124.316 65.178,125.417 64.626,126.792 65.156,127.803 65.379,128.9 
					66.164,129.936 65.146,131.152 				"/>
			</g>
			<g>
				
					<radialGradient id="SVGID_5_" cx="46.4329" cy="143.2793" r="12.3544" gradientTransform="matrix(1 0 0 -1 -0.0552 275.6484)" gradientUnits="userSpaceOnUse">
					<stop  offset="0" style="stop-color:#FFD300"/>
					<stop  offset="0.6994" style="stop-color:#F16528"/>
					<stop  offset="0.8589" style="stop-color:#F05A28"/>
				</radialGradient>
				<polygon fill="url(#SVGID_5_)" points="58.454,132.244 57.971,133.316 57.817,134.376 58.077,135.562 57.638,136.591 
					56.867,137.447 56.752,138.645 56.07,139.534 55.178,140.23 54.554,141.17 53.916,142.174 52.723,142.428 51.781,143.014 
					50.93,143.891 49.68,143.708 48.648,144.163 47.571,144.672 46.418,144.295 45.323,144.051 44.201,144.104 43.144,143.751 
					42.198,143.137 40.987,143.15 40.028,142.562 39.388,141.555 38.08,141.389 37.161,140.682 36.9,139.432 36.086,138.641 
					35.584,137.638 35.545,136.457 34.909,135.52 34.259,134.518 34.655,133.335 33.972,132.244 34.201,131.112 34.203,129.96 
					34.984,128.99 35.272,127.925 35.381,126.747 35.804,125.671 36.491,124.746 37.68,124.277 38.469,123.522 39.005,122.426 
					39.925,121.756 40.965,121.292 42.164,121.265 43.246,121.098 44.277,120.794 45.321,120.405 46.418,120.286 47.503,120.546 
					48.696,120.066 49.758,120.508 50.897,120.687 51.99,121.059 52.556,122.333 53.872,122.376 54.556,123.32 54.99,124.433 
					55.937,125.059 56.452,126.034 57.327,126.812 57.461,127.966 57.737,129.024 58.685,129.951 58.783,131.098 				"/>
			</g>
		</g>
	</g>
	<path fill="none" stroke="#FFFFFF" stroke-width="2.2458" stroke-miterlimit="10" stroke-dasharray="2.2458,4.4915" d="
		M54.281,182.357"/>
	
		<line fill="none" stroke="#FFFFFF" stroke-width="4.4915" stroke-linecap="round" stroke-linejoin="round" stroke-miterlimit="10" stroke-dasharray="1.2756,7.6535" x1="62.996" y1="155.576" x2="87.594" y2="188.43"/>
	
		<line fill="none" stroke="#FFFFFF" stroke-width="4.4915" stroke-linecap="round" stroke-linejoin="round" stroke-miterlimit="10" stroke-dasharray="1.2756,7.6535" x1="53.76" y1="158.104" x2="71.865" y2="199.482"/>
	
		<line fill="none" stroke="#FFFFFF" stroke-width="4.4915" stroke-linecap="round" stroke-linejoin="round" stroke-miterlimit="10" stroke-dasharray="1.2756,7.6535" x1="45.731" y1="160.234" x2="48.068" y2="202.182"/>
	
		<line fill="none" stroke="#FFFFFF" stroke-width="4.4915" stroke-linecap="round" stroke-linejoin="round" stroke-miterlimit="10" stroke-dasharray="1.2756,7.6535" x1="72.662" y1="153.273" x2="113.206" y2="187.174"/>
	<circle fill="#F05A28" cx="194.771" cy="98.248" r="1.481"/>
	<path fill="#005D3E" d="M105.034,189.768c5.055-9.064-0.74-27.238-4.279-36.477c-2.99-7.814-6.966-15.526-11.737-22.442
		c-4.681-6.788-20.15-30.624-24.231-28.833c-6.78,2.952,11.01,37.208,20.827,48.027c5.3,5.841,9.107,14.148,13.09,21.038
		c3.682,6.366,4.294,16.662,8.429,22.246"/>
	<path fill="#005D3E" d="M138.713,176.443c6.287-19.818,5.314-41.484,0.501-61.254c-5.715-23.473-10.727-63.156,1.62-75.371
		c2.704-0.726,0.619,8.432,0.605,11.968c-0.026,6.565,0.473,12.921,1.127,19.227c1.153,11.155,5.098,22.316,5.248,33.468
		c0.146,10.825,1.347,26.289,0.081,37.339c-1.454,12.679,0,23.9-4.489,34.859"/>
	<path fill="#005D3E" d="M110.968,176.445c0.801-6.412-0.377-14.088-0.67-20.502c-0.38-8.367-0.728-16.812-0.435-25.179
		c0.266-7.572-1.436-16.162,0.658-23.335c1.358-4.654,8.194-46.946,13.192-46.195c5.037-1.279-0.303,44.794-1.826,51.07
		c-1.761,7.266-3.979,14.278-5.527,21.878c-1.785,8.759-1.898,17.628-2.307,26.638c-0.213,4.744,1.381,16.089-1.97,19.199
		c-0.515-1.113-0.814-2.328-0.72-3.559"/>
	<path fill="#005D3E" d="M107.418,195.477c0.925-8.25,8.034-11.66,10.638-19.457c2.471-7.397,5.542-20.031,7.13-27.729
		c1.486-7.205,2.95-17.529,3.301-24.953c0.18-3.768,0.99-14.152-4.503-15.397c-3.497,12.888-5.923,25.277-7.177,38.574
		c-0.792,8.394-1.35,16.207-2.917,24.719c-0.825,4.498-2.051,8.449-3.625,12.726c-1.628,4.427-5.236,9.56-5.362,14.205
		c0.581-3.867,8.168-14.629,11.154-16.808"/>
	<g>
		<g>
			<path fill="#005D3E" d="M93.195,93.518c1.604,21.583,2.682,43.364,6.132,64.755c2.998,18.584,8.432,36.713,13.48,54.812
				c0.799,2.859,5.609,1.163,4.812-1.697c-4.941-17.712-10.248-35.439-13.25-53.611c-3.53-21.366-4.529-43.188-6.133-64.755
				C98.008,89.957,92.978,90.61,93.195,93.518L93.195,93.518z"/>
		</g>
	</g>
	<path fill="#005D3E" d="M144.331,189.355c-3.3-5.316,1.318-21.127,5.104-35.599c2.859-10.938,5.356-21.5,8.321-32.415
		c2.729-10.055,6.185-19.962,7.438-30.155c1.159-9.417,3.177-18.835,5.458-27.654c0.225,10.781,3.507,21.868,4.049,32.771
		c0.537,10.8-3.632,20.388-8.494,29.785c-8.328,16.1-18.971,46.398-18.971,64.852"/>
	<g>
		<path fill="#FFF100" stroke="#F6921E" stroke-width="3.8682" stroke-miterlimit="10" d="M125.144,69.379
			c-8.743-4.638-14.401-6.335-20.987-4.646c2.18-14.162-7.399-25.375-7.399-25.375c-11.265,6.527-17.006,17.025-16.933,26.094
			c0,0.073,0.004,0.146,0.005,0.219c-3.211-5.029-7.191-8.665-11.299-10.549c-7.905-3.624-18.062-2.581-18.062-2.581
			s-0.021,3.463,6.182,16.447c1.973,4.129,4.425,7.156,7.148,9.313c-3.426,0.532-6.445,1.728-8.858,3.477
			C48.155,86.693,43.003,97.14,43.003,97.14s4.882,1.175,16.648,3.727c4.308,0.934,8.017,0.318,11.127-0.92
			c-1.056,2.792-1.607,5.61-1.631,8.311c-0.088,9.06,5.022,19.435,5.022,19.435s1.984-0.445,10.94-9.622
			c3.684-3.773,7.729-8.729,7.291-18.524c0.494,0.845,0.235-1.357,0.811-0.391c10.717,17.95,30.665,10.303,30.665,10.303
			c-2.863-10.338-8.304-18.09-14.294-22.443C120.987,83.233,125.144,69.379,125.144,69.379z"/>
		<g>
			
				<linearGradient id="SVGID_6_" gradientUnits="userSpaceOnUse" x1="-176.4714" y1="36.7158" x2="-142.3811" y2="36.7158" gradientTransform="matrix(0.5475 -0.8368 -0.8368 -0.5475 207.468 -31.4932)">
				<stop  offset="0" style="stop-color:#F6921E"/>
				<stop  offset="1" style="stop-color:#EB2026"/>
			</linearGradient>
			<path fill="url(#SVGID_6_)" d="M103.053,93.812l-3.752,0.136l-0.775,2.883l-3.438-0.313l-1.251,1.29l-3.881,1.103l-2.616-1.059
				l-2.553-0.123l-3.398-3.265l-2.803,0.603l-1.167-3.258l-1.284-0.121l-0.232-2.897l-2.452-1.086l1.4-2.896l-1.868-1.328
				l-0.49-4.187l1.811-1.523l-0.908-2.364l2.305-2.052l0.472-4.009l3.522,0.139l0.99-2.579l2.823,0.491l1.947-3.16l4.395,2.611
				l0.667,0.182l2.394-0.799l2.371,1.022l3.054-0.004l2.836,2.813l0.749,1.772l2.106,1.33l1.04,3.595l-0.17,3.081l-0.302,1.516
				l0.312,1.845l-0.281,2l0.523,4.268l-2.603,0.795L103.053,93.812z M96.073,86.221l2.706-0.828l-0.032-0.243l0.264-1.872
				l-0.336-2.006l0.459-2.325l0.068-1.507l-0.173-0.6l-1.789-1.129l-1.007-2.394l-0.316-0.313l-1.854,0.003l-1.425-0.616
				l-1.956,0.653l-3.269-0.931l-1.004,1.631l-1.993-0.348l-0.767,1.998l-2.322-0.09l-0.103,0.871l-0.978,0.87l0.954,2.475
				l-2.146,1.807l0.005,0.017l0.972,1.923l0.809,2.255l0.018,1.788l0.48,0.686l1.103-0.652l0.105,2.146l1.501-0.584l0.949,2.069
				l1.646-0.374l1.4,1.208l0.66,1.021l2.019-1.492l2.81,0.832l0.631-1.513l0.618-2.298l1.595-0.059L96.073,86.221z"/>
		</g>
	</g>
	<circle fill="#F05A28" cx="101.55" cy="83.987" r="1.073"/>
	<path fill="#005D3E" d="M165.975,221.422c-13.32-18.197,4.067-66.632,29.848-83.282c9.608-2.319-16.902,32.523-22.176,44.124
		c-4.553,10.012-9.326,15.596-8.274,39.817"/>
	<path fill="#005D3E" d="M154.786,225.129c-6.919-22.561,21.643-60.361,49.065-65.021c9.17,1.881-21.808,15.215-29.632,23.802
		c-6.756,7.411-22.057,32.452-20.149,41.579"/>
	<path fill="#005D3E" d="M144.332,199.66c25.083-13.579,28.688-64.65,16.694-74.513c-9.013-3.271-0.85,29.812-1.969,40.341
		c-0.969,9.09-5.03,28.859-14.46,34.812"/>
	<g>
		<circle fill="#F05A28" cx="94.817" cy="78.705" r="1.32"/>
		<circle fill="#F05A28" cx="97.456" cy="82.139" r="0.989"/>
		<circle fill="#F05A28" cx="90.394" cy="81.082" r="0.989"/>
		<circle fill="#F05A28" cx="92.967" cy="83.722" r="0.989"/>
		<circle fill="#FAAF40" cx="85.797" cy="81.31" r="0.99"/>
		<circle fill="#FAAF40" cx="97.194" cy="85.637" r="0.99"/>
	</g>
	<circle fill="#EE4036" cx="93.099" cy="88.873" r="1.32"/>
	<circle fill="#EE4036" cx="87.342" cy="85.36" r="1.32"/>
	<path fill="#21C0E0" stroke="#231F20" stroke-width="6.7373" stroke-miterlimit="10" d="M208.738,192.189h-38.173v-12.447
		c0-1.234-1.009-2.246-2.244-2.246H92.554c-1.235,0-2.244,1.012-2.244,2.246v12.447H52.503c-5.296,0-9.626,4.33-9.626,9.625v30.088
		c0,5.293,4.33,9.623,9.626,9.623h156.234c5.292,0,9.626-4.33,9.626-9.623v-30.088C218.364,196.521,214.03,192.189,208.738,192.189z
		"/>
	<g>
		<path fill="#231F20" d="M66.798,232.242c-3.163,0-6.559-0.123-10.094-0.365l-0.476-0.031V203.02l0.476-0.031
			c3.54-0.242,6.936-0.365,10.094-0.365c4.239,0,7.262,1.111,8.985,3.307c1.717,2.186,2.552,5.948,2.552,11.504
			c0,5.559-0.835,9.319-2.553,11.504C74.06,231.131,71.037,232.242,66.798,232.242z M61.289,227.607
			c1.614,0.065,3.465,0.1,5.509,0.1c2.364,0,3.947-0.688,4.839-2.104c0.927-1.47,1.396-4.222,1.396-8.172
			c0-3.949-0.469-6.699-1.396-8.17c-0.892-1.418-2.475-2.105-4.839-2.105c-0.808,0-1.876,0.008-3.208,0.021
			c-0.981,0.01-1.75,0.016-2.302,0.02L61.289,227.607L61.289,227.607z"/>
		<path fill="#231F20" d="M89.216,232.242c-1.951,0-3.539-0.531-4.722-1.583c-1.2-1.067-1.808-2.581-1.808-4.502v-2.06
			c0-1.707,0.548-3.06,1.626-4.019c1.062-0.942,2.562-1.422,4.459-1.422h7.406v-1.024c-0.021-1.039-0.248-1.758-0.669-2.115
			c-0.303-0.258-1.024-0.562-2.738-0.562c-1.457,0-4.258,0.162-8.321,0.48l-0.485,0.039l-0.487-3.834l0.479-0.084
			c3.562-0.621,6.812-0.938,9.663-0.938c2.512,0,4.404,0.529,5.625,1.578c1.244,1.066,1.875,2.896,1.875,5.436v14.245h-4.023
			l-0.365-2.565C94.539,231.258,92.018,232.242,89.216,232.242z M89.507,222.629c-0.702,0.023-1.185,0.188-1.435,0.484
			c-0.271,0.32-0.407,0.828-0.407,1.51v1.051c0,0.816,0.177,1.398,0.525,1.729c0.357,0.338,0.974,0.509,1.832,0.509
			c2.142,0,4.211-0.832,6.154-2.472v-2.811H89.507L89.507,222.629z"/>
		<path fill="#231F20" d="M108.62,231.879v-16.684h-3.555v-3.819l3.555-0.202v-2.951c0-0.197,0.327-20.154,1.51-21.426
			c1.014-1.087,2.646-1.637,4.859-1.637c2.538,0,4.479,0.096,5.77,0.287l0.487,0.072l-0.428,3.854h-4.457
			c-1.01,0-1.73,0.164-2.145,0.486c-0.393,1.545-0.657,16.721-0.657,18.808v2.478h6.102v4.051h-6.102v16.685L108.62,231.879
			L108.62,231.879z"/>
		<path fill="#231F20" d="M125.182,231.879v-16.684h-3.555v-3.819l3.555-0.202v-2.951c0-0.191,0.327-19.5,1.51-20.771
			c1.012-1.088,2.646-1.637,4.856-1.637c2.537,0,4.477,0.099,5.768,0.289l0.487,0.072l-0.43,3.852h-4.454
			c-1.011,0-1.729,0.164-2.144,0.488c-0.393,1.51-0.657,16.144-0.657,18.151v2.478h6.097v4.051h-6.097v16.685L125.182,231.879
			L125.182,231.879z"/>
		<path fill="#231F20" d="M148.873,232.404c-3.553,0-6.126-0.846-7.646-2.51c-1.531-1.674-2.274-4.402-2.274-8.342
			c0-3.884,0.765-6.701,2.271-8.38c1.521-1.694,4.096-2.554,7.649-2.554c3.558,0,6.129,0.859,7.652,2.554
			c1.506,1.677,2.271,4.495,2.271,8.38c0,3.94-0.743,6.67-2.273,8.342C155.001,231.559,152.428,232.404,148.873,232.404z
			 M148.873,214.955c-1.869,0-3.143,0.434-3.791,1.291c-0.685,0.9-1.029,2.688-1.029,5.309c0,2.592,0.346,4.363,1.029,5.264
			c0.646,0.857,1.922,1.293,3.791,1.293c1.87,0,3.146-0.436,3.795-1.291c0.683-0.901,1.028-2.674,1.028-5.266
			c0-2.621-0.347-4.408-1.028-5.309C152.02,215.389,150.743,214.955,148.873,214.955z"/>
		<path fill="#231F20" d="M170.448,232.363c-2.602,0-4.519-0.957-5.705-2.844c-1.137-1.812-1.715-4.531-1.715-8.088
			c0-3.925,0.631-6.638,1.926-8.293c1.309-1.67,3.359-2.52,6.098-2.52c2.226,0,4.308,0.472,6.205,1.398
			c-0.059-0.924-0.091-1.926-0.091-2.988v-6.448h4.939v29.297h-4.032l-0.271-2.244C175.414,231.447,172.944,232.363,170.448,232.363
			z M172.02,215.033c-1.483,0-2.513,0.396-3.056,1.177c-0.582,0.837-0.875,2.581-0.875,5.183c0,2.609,0.291,4.394,0.868,5.299
			c0.538,0.849,1.46,1.26,2.821,1.26c0.916,0,1.733-0.161,2.433-0.479c0.699-0.318,1.69-0.906,2.953-1.748v-9.834
			C174.952,215.32,173.223,215.033,172.02,215.033z"/>
		<path fill="#231F20" d="M188.317,231.879v-20.734h4.896v20.734H188.317z M189.834,208.328c-1.043,0-1.641-0.613-1.641-1.684
			v-2.261c0-1.042,0.598-1.64,1.641-1.64h1.859c1.043,0,1.641,0.598,1.641,1.64v2.261c0,1.069-0.598,1.684-1.641,1.684H189.834z"/>
		<path fill="#231F20" d="M204.942,232.242c-1.668,0-3.015-0.506-3.998-1.506c-0.981-0.994-1.479-2.399-1.479-4.176v-23.979h4.937
			v23.092c-0.021,0.707,0.127,1.195,0.453,1.512c0.328,0.32,0.859,0.48,1.582,0.48h2.26l0.564,3.85l-0.353,0.158
			C208.05,232.057,206.752,232.242,204.942,232.242z"/>
	</g>
	<g>
		
			<polygon fill="#FFF100" stroke="#FFF100" stroke-width="1.597" stroke-linecap="round" stroke-linejoin="round" stroke-miterlimit="10" points="
			112.629,184.629 116.366,187.418 118.76,183.418 119.43,188.029 123.951,186.895 121.163,190.632 125.164,193.023 120.55,193.693 
			121.687,198.217 117.951,195.43 115.557,199.43 114.888,194.814 110.365,195.953 113.153,192.216 109.153,189.822 
			113.766,189.152 		"/>
		<path fill="#F6921E" d="M115.06,191.168c0-1.398,1.136-2.537,2.536-2.537s2.534,1.139,2.534,2.537c0,1.4-1.134,2.537-2.534,2.537
			S115.06,192.568,115.06,191.168z"/>
	</g>
	<g>
		
			<polygon fill="#FFF100" stroke="#FFF100" stroke-width="1.597" stroke-linecap="round" stroke-linejoin="round" stroke-miterlimit="10" points="
			130.852,184.629 134.583,187.418 136.979,183.418 137.65,188.029 142.172,186.895 139.383,190.632 143.383,193.023 
			138.772,193.693 139.906,198.217 136.168,195.43 133.778,199.43 133.107,194.814 128.587,195.953 131.375,192.216 
			127.373,189.822 131.987,189.152 		"/>
		<path fill="#F6921E" d="M133.281,191.168c0-1.398,1.134-2.537,2.534-2.537c1.401,0,2.536,1.139,2.536,2.537
			c0,1.4-1.135,2.537-2.536,2.537C134.414,193.705,133.281,192.568,133.281,191.168z"/>
	</g>
	<g>
		<path fill="#FFF100" stroke="#F6921E" stroke-width="3.32" stroke-miterlimit="10" d="M182.082,36.919
			c-8.719,0.895-14.254,4.141-17.241,8.275c-6.197-10.474-21.388-15.372-21.388-15.372c-2.6,9.508,1.027,19.145,7.329,25.171
			c0.056,0.046,0.106,0.096,0.159,0.143c-5.494-1.894-10.518-2.505-14.407-1.887c-7.484,1.187-11.988,7.122-11.988,7.122
			s1.919,4.789,13.76,8.741c4.312,1.437,8.036,1.587,11.244,1.784c-1.793,1.921-2.837,4.103-3.188,6.372
			c-1.347,8.721,3.226,15.737,3.226,15.737s2.144-0.164,10.636-3.694c3.314-1.379,7.564-4.89,8.671-7.138
			c1.262,2.347,2.859,4.482,4.707,6.299c6.198,6.091,13.088,10.811,13.088,10.811s2.141-14.554-4.467-26.172
			c16.678-0.817,26.724-8.834,26.724-8.834c-8.942-5.6-17.724-8.293-24.504-8.465C189.022,48.076,182.082,36.919,182.082,36.919z"/>
		<g>
			
				<linearGradient id="SVGID_7_" gradientUnits="userSpaceOnUse" x1="194.9436" y1="77.9854" x2="226.8013" y2="115.253" gradientTransform="matrix(0.9833 0.1819 0.1819 -0.9833 -43.528 105.046)">
				<stop  offset="0" style="stop-color:#F05A28"/>
				<stop  offset="0.0436" style="stop-color:#F26B25"/>
				<stop  offset="0.1426" style="stop-color:#F68D1E"/>
				<stop  offset="0.1963" style="stop-color:#F89A1C"/>
				<stop  offset="0.5337" style="stop-color:#FFF100"/>
			</linearGradient>
			<path fill="url(#SVGID_7_)" d="M187.444,36.547l-3.43,0.066l-0.801-0.43l-4.699-4.398l-3.779,2.841l-3.48-1.512l-2.305,2.524
				l0.932,6.012c-0.075,0.126-0.153,0.25-0.204,0.388c-0.796,2.25-3.107,7.173-9.389,16.826
				c-5.946,9.134,2.337,16.968,10.421,11.384c8.763-6.052,22.379-10.758,25.741-10.538c-2.966-2.588,0.204-4.054,0.204-4.054
				l2.488-3.274l0.059-4.344l-2.226-2.195l-0.274-2.222l-2.596-4.091l-3.982-1.04"/>
			<g>
				<g>
					
						<linearGradient id="SVGID_8_" gradientUnits="userSpaceOnUse" x1="203.6418" y1="489.5605" x2="181.5925" y2="478.9859" gradientTransform="matrix(0.9361 -0.3517 -0.3517 -0.9361 174.8461 567.8016)">
						<stop  offset="0" style="stop-color:#F6921E"/>
						<stop  offset="1" style="stop-color:#ED4926"/>
					</linearGradient>
					<path fill="url(#SVGID_8_)" d="M197.219,62.114l-3.646-1.113l-0.742,2.164l-3.34-1.386l-1.211,0.667l-3.765-0.343l-2.542-1.742
						l-2.479-0.938l-3.948-3.833l-1.793-1.58l-1.907-2.114l-1.835-2.861l-0.029-2.182l-0.406-1.109l-0.996-1.968l-1.084-3.816
						l1.752-0.683L168.36,37l2.229-0.966l0.444-3.205l3.423,1.269l0.951-1.838l2.744,1.337l1.879-2.015l4.276,3.625l0.647,0.371
						l2.267-0.404l2.358,2.146l2.966,0.997l2.839,2.95l0.147,2.571l3.103,1.421l1.169,3.205l-0.849,2.544l-0.285,1.173l1.076,1.722
						l-1.037,1.507l0.523,3.749l-2.523-0.186L197.219,62.114z M190.416,53.47l2.624,0.192l-0.03-0.213l0.25-1.482l-0.334-1.79
						l0.438-1.798l0.062-1.24l-0.171-0.562l-1.739-1.53l-0.984-2.333l-0.309-0.367l-1.802-0.603l-1.383-0.981l-1.897-0.093
						l-3.176-1.849l-0.974,1.038l-1.932-0.942l-0.738,1.424l-2.26-0.837l-0.094,0.698l-0.946,0.409l0.935,2.385l-2.079,0.812
						l0.005,0.017l0.949,1.929l0.795,2.154l0.019,1.501l0.471,0.734l1.072,1.191l1.563,1.375l2.728,2.646l1.721,0.652l1.623,1.113
						l0.42,0.038l2.041-1.13l1.292,0.537l0.591-1.725l1.551,0.473L190.416,53.47z"/>
				</g>
				<g>
					<path fill="#F05A28" d="M185.176,44.248c-0.166,0.737-0.934,1.243-1.709,1.128c-0.778-0.114-1.275-0.804-1.108-1.541
						c0.164-0.738,0.932-1.242,1.709-1.129C184.845,42.821,185.341,43.511,185.176,44.248z"/>
					<path fill="#F05A28" d="M186.858,48.081c-0.123,0.552-0.697,0.932-1.281,0.846c-0.582-0.085-0.953-0.602-0.83-1.155
						c0.125-0.553,0.698-0.932,1.281-0.847C186.612,47.011,186.983,47.529,186.858,48.081z"/>
					<path fill="#F05A28" d="M179.559,45.907c-0.123,0.552-0.699,0.93-1.279,0.845c-0.585-0.086-0.956-0.603-0.831-1.157
						c0.124-0.552,0.698-0.93,1.281-0.844S179.684,45.353,179.559,45.907z"/>
					<path fill="#F05A28" d="M181.705,48.979c-0.126,0.552-0.699,0.931-1.281,0.845c-0.582-0.086-0.954-0.603-0.83-1.155
						c0.125-0.554,0.698-0.932,1.282-0.847C181.459,47.908,181.83,48.425,181.705,48.979z"/>
					<path fill="#FAAF40" d="M189.554,45.165c-0.125,0.554-0.697,0.933-1.282,0.848c-0.582-0.085-0.957-0.604-0.832-1.157
						c0.125-0.552,0.699-0.93,1.283-0.845C189.304,44.096,189.679,44.614,189.554,45.165z"/>
					<path fill="#FAAF40" d="M185.779,51.577c-0.125,0.552-0.696,0.932-1.283,0.846c-0.58-0.085-0.952-0.603-0.828-1.156
						c0.125-0.553,0.7-0.931,1.282-0.846C185.532,50.507,185.904,51.025,185.779,51.577z"/>
				</g>
			</g>
		</g>
	</g>
	<g>
		<path fill="#FFF100" stroke="#F6921E" stroke-width="3.6344" stroke-miterlimit="10" d="M246.239,124.366
			c-5.456-7.642-14.275-10.264-20.58-11.764c8.987-8.68,7.175-23.444,7.175-23.444c-12.329,0.422-21.654,6.526-25.437,14.003
			c-0.032,0.062-0.06,0.124-0.088,0.185c-0.594-5.538-2.433-10.266-5.119-13.614c-5.172-6.44-14.234-10.036-14.234-10.036
			s-1.486,2.835-1.729,16.213c-0.076,4.256,0.721,7.815,2.119,10.782c-3.134-1.067-6.204-1.408-8.996-1.03
			c-7.843,1.062-16.644,7.381-16.644,7.381s3.646,3.106,12.553,10.358c3.26,2.655,6.667,3.777,9.833,4.121
			c-2.078,1.83-3.741,3.902-4.908,6.109c-3.915,7.399-3.976,18.158-3.976,18.158s5.771-0.433,13.364-3.104
			c4.673-1.645,10.261-3.779,14.042-12.014c0.062,0.911,0.775-1.012,0.854,0.034c1.487,19.437,24.516,24.928,24.516,24.928
			c2.07-12.19-0.919-22.772-5.473-27.722C234.795,135.804,246.239,124.366,246.239,124.366z"/>
		<g>
			
				<linearGradient id="SVGID_9_" gradientUnits="userSpaceOnUse" x1="193.262" y1="156.2773" x2="224.5413" y2="156.2773" gradientTransform="matrix(1 0 0 -1 -0.0552 275.6484)">
				<stop  offset="0" style="stop-color:#F6921E"/>
				<stop  offset="1" style="stop-color:#EB2026"/>
			</linearGradient>
			<path fill="url(#SVGID_9_)" d="M206.354,135.79l-1.979-2.793l-2.609,0.866l-1.474-2.779l-1.619-0.303l-2.786-2.401l-0.486-2.527
				l-1.178-2.008l-1.017-4.601l2.325-1.991l-0.661-2.382l1.131-2.785l1.991-1.329l0.688-0.901l0.998-1.762l2.632-2.924l2.077,0.611
				l1.371-1.885l2.729,0.721l3.329-1.665l1.649,2.755l2.484-0.549l1.026,2.399l3.409-0.11l0.179,4.667l0.19,0.6l1.81,1.42
				l0.394,2.32l1.526,2.326l-0.755,3.582l-0.994,1.465l0.023,2.277l-2.255,2.606l-2.461,1.426l-1.319,0.537l-1.269,1.168
				l-1.682,0.794l-3.033,2.552l-1.91-1.58L206.354,135.79z M208.729,126.638l1.985,1.644l0.172-0.146l1.577-0.745l1.378-1.269
				l2.023-0.823l1.197-0.708l0.374-0.437l-0.021-1.932l1.343-1.975l0.085-0.401l-0.927-1.412l-0.234-1.396l-1.479-1.161
				l-0.911-2.958l-1.76,0.057l-0.724-1.694l-1.927,0.426l-1.088-1.817l-0.723,0.361l-1.158-0.304l-1.432,1.973l-2.465-0.722
				l-0.012,0.011l-0.999,1.712l-1.336,1.756l-1.372,0.913l-0.288,0.714l-0.215,1.343l0.019,1.734l-0.197,3.177l0.818,1.395
				l0.309,1.615l0.31,0.265l2.729,0.513l0.57,1.073l2.081-0.688l0.841,1.186L208.729,126.638z"/>
		</g>
		<g>
			<circle fill="#F05A28" cx="208.745" cy="117.229" r="1.349"/>
			<circle fill="#F05A28" cx="211.446" cy="120.739" r="1.012"/>
			<circle fill="#F05A28" cx="204.223" cy="119.659" r="1.012"/>
			<circle fill="#F05A28" cx="206.854" cy="122.36" r="1.012"/>
			<circle fill="#FAAF40" cx="213.334" cy="117.499" r="1.011"/>
			<path fill="#FAAF40" d="M212.188,124.315c0,0.561-0.453,1.014-1.013,1.014s-1.014-0.454-1.014-1.014
				c0-0.557,0.454-1.01,1.014-1.01C211.735,123.306,212.188,123.758,212.188,124.315z"/>
		</g>
	</g>
</g>
</svg>
