<?xml version="1.0" encoding="utf-8"?>
<!-- Generator: Adobe Illustrator 15.0.0, SVG Export Plug-In . SVG Version: 6.00 Build 0)  -->
<!DOCTYPE svg PUBLIC "-//W3C//DTD SVG 1.1//EN" "http://www.w3.org/Graphics/SVG/1.1/DTD/svg11.dtd">
<svg version="1.1" xmlns="http://www.w3.org/2000/svg" xmlns:xlink="http://www.w3.org/1999/xlink" x="0px" y="0px" width="246px"
	 height="257px" viewBox="0 0 246 257" enable-background="new 0 0 246 257" xml:space="preserve">
<g id="bg" display="none">
	
		<rect x="-69.5" y="-13" display="inline" fill-rule="evenodd" clip-rule="evenodd" fill="#27AAE1" stroke="#FFFFFF" stroke-width="6.6723" stroke-miterlimit="10" width="387.5" height="283.5"/>
</g>
<g id="Layer_1">
	<polygon fill-rule="evenodd" clip-rule="evenodd" fill="#FFFFFF" points="1133.875,284.75 1142.625,281.75 1142.625,285.875 
		1133.125,285.875 	"/>
	<polygon fill-rule="evenodd" clip-rule="evenodd" fill="#FFFFFF" points="1229.875,310.75 1227.125,317.125 1239.875,310.625 	"/>
	<g>
		<path fill-rule="evenodd" clip-rule="evenodd" fill="#FFFFFF" d="M1173.491,289c-1-7.5,1.5-13.5,1.5-20.5c0-8-10-16.5-10-22
			c1-9,34.5-2,30.5,14.5c3,0.5,6,0,8.5-0.5c-2,6-9.5,7-15,9c2,3.5,6,12,5.5,15.5c-1,8.5-15,8-22,11c0.5-3.5,0.5-7,0-10.5"/>
		<g>
			<path fill="#FFFFFF" d="M1174.457,288.741c-0.996-10.178,3.92-19.43-1.317-28.934c-2.142-3.886-12.28-14.831-3.366-16.552
				c10.028-1.936,27.251,5.705,24.755,17.877c-0.046,0.223,0.171,0.342,0.363,0.362c1.39,0.146,2.62,0.304,4.024,0.183
				c1.134-0.062,2.259-0.193,3.376-0.392c-0.006,1.26-0.572,2.238-1.698,2.933c-3.03,2.914-8.109,3.59-11.973,4.925
				c-0.15,0.052-0.739,0.356-0.596,0.615c2.724,4.898,7.862,13.275,4.176,18.683c-3.66,5.368-14.434,4.976-20.08,7.202
				c0.444,0.075,0.889,0.149,1.333,0.224c0.427-3.582,0.431-7.036,0.003-10.626c-0.069-0.587-2.013-0.162-1.932,0.518
				c0.416,3.495,0.421,6.865,0.003,10.374c-0.072,0.606,1.06,0.331,1.333,0.224c5.789-2.283,23.379-2.579,22.638-12.379
				c-0.232-3.076-1.41-5.96-2.598-8.776c-0.619-1.468-1.331-2.897-2.053-4.317c-0.949-1.866,1.524-2.004,2.945-2.444
				c4.665-1.443,9.181-3.303,11.16-8.073c0.164-0.395-0.646-0.394-0.82-0.361c-1.031,0.193-7.79,1.397-7.504,0.001
				c0.114-0.554,0.17-1.227,0.157-1.792c-0.042-1.895-0.465-3.551-1.31-5.247c-1.364-2.738-3.967-4.937-6.561-6.458
				c-5.553-3.259-12.404-5.167-18.857-4.243c-6.355,0.911-6.841,5.029-3.874,10.156c2.867,4.955,6.771,9.326,7.768,15.131
				c1.205,7.018-2.133,14.498-1.428,21.703C1172.582,289.838,1174.524,289.428,1174.457,288.741L1174.457,288.741z"/>
		</g>
	</g>
	<path fill-rule="evenodd" clip-rule="evenodd" fill="#FFFFFF" stroke="#39B54A" stroke-width="3.4315" stroke-miterlimit="10" d="
		M1142.491,295.25c0-24.438,19.812-44.25,44.25-44.25s44.25,19.812,44.25,44.25c0,28.214-19.055,44.25-44.25,44.25
		C1162.303,339.5,1142.491,319.688,1142.491,295.25z"/>
	<g>
		<path fill="#BABCBE" d="M1186.521,342.834c-3.419-5.555-3.327-7.239-9.33-10.928l-0.799-0.494
			c-0.412-0.274-0.812-0.546-1.204-0.811c-3.778-2.558-6.059-4.102-11.354-4.102c-6.121,0-12.45,0-17.975-5.525l3.25-3.816
			c3.476,3.475,8.974,2.342,14.725,2.342c7.442,0,11.249,2.577,15.278,5.305l1.744,1.138c6.121,3.762,10.165,6.246,14.458,13.224
			L1186.521,342.834z"/>
	</g>
	
		<circle fill-rule="evenodd" clip-rule="evenodd" fill="none" stroke="#39B54A" stroke-width="6.5865" stroke-miterlimit="10" cx="1186.741" cy="295.25" r="44.917"/>
	<g>
		<path fill-rule="evenodd" clip-rule="evenodd" fill="#FFFFFF" d="M1175.875,284.75c-1-7.5-6.75-6.375-3.884-16.75
			c2.13-7.711-9.991-19.375-14.366-23.375c7.759-6.25,38.866-0.625,34.866,15.875c3.009,2,6,0,8.5-0.5
			c-2,6-7.241,7.375-12.741,9.375c2,3.5,3.741,11.625,3.241,15.125c-1,8.5-9.366,7.5-16.366,10.5"/>
		<g>
			<path fill="#FFFFFF" d="M1176.841,284.491c-0.572-3.224-2.205-5.219-3.772-7.965c-2.116-3.707,0.278-7.718,0.091-11.594
				c-0.365-7.541-8.453-14.838-13.497-19.62c-2.259-2.142,7.158-2.666,8.45-2.651c4.07,0.043,8.148,0.937,11.966,2.3
				c6.841,2.443,13.07,7.779,11.45,15.671c-0.032,0.157,0.052,0.25,0.188,0.313c3.42,1.577,5.903,0.441,9.393-0.505
				c-0.36-0.103-0.721-0.205-1.081-0.308c-2.164,5.454-7.044,7.057-12.149,8.887c-0.156,0.056-0.731,0.35-0.595,0.615
				c2.45,4.758,3.943,11.013,3.011,16.33c-1.137,6.48-10.546,6.707-15.541,8.68c-1.262,0.499-0.097,1.044,0.742,0.713
				c8.026-3.171,17.622-3.046,16.974-14.163c-0.154-2.642-0.821-5.269-1.539-7.802c-0.329-1.165-0.78-2.28-1.259-3.389
				c-0.43-0.997,3.243-1.845,3.865-2.092c3.954-1.574,6.834-4.053,8.417-8.042c0.196-0.495-0.909-0.355-1.081-0.308
				c-1.903,0.516-7.569,2.504-7.113-1.013c0.115-0.888,0.034-1.801-0.059-2.684c-0.205-1.945-1.191-3.7-2.313-5.253
				c-2.682-3.709-7.412-5.804-11.614-7.174c-6.736-2.195-16.781-3.451-22.915,1.061c-0.14,0.103-0.303,0.339-0.134,0.495
				c5.752,5.292,12.432,11.64,14.352,19.47c0.982,4.005-1.679,7.761-0.271,11.868c1.076,3.141,3.49,5.219,4.104,8.68
				C1175.017,285.613,1176.958,285.151,1176.841,284.491L1176.841,284.491z"/>
		</g>
	</g>
	<path fill="#EF4136" stroke="#B9E5FB" stroke-width="3.9194" stroke-miterlimit="10" d="M1186.388,316.761"/>
	<path fill="#EF4136" stroke="#B9E5FB" stroke-width="3.9194" stroke-miterlimit="10" d="M1188.985,312.432"/>
	<g id="TaoKiz_3_">
		<g>
			<g>
				<path fill-rule="evenodd" clip-rule="evenodd" d="M1193.185,260.63c4.353,1.036,6.937-1.52,8.988-3.508
					c2.093,6.293-2.374,12.005-8.771,11.182c0.918,4.51,0.507,12.355-1.219,16.071c-0.274-0.958,0.291-3.186,0.342-4.014
					c0.337-5.398-1.45-11.342-2.85-14.689c3.872,1.84,9.55,0.594,10.083-3.507c-1.613,0.425-5.69,0.762-7.452-0.438
					c-1.371,0.676-2.15,1.942-4.165,1.974c0.431-1.255,1.996-1.676,2.851-2.852c2.412-3.323,1.697-9.175-1.756-11.399
					c0.239,4.207-1.873,7.901-5.261,9.208c0.14-1.266,1.636-2.044,2.192-3.288c2.256-5.041-1.006-10.562-5.26-11.838
					c1.387,2.754,2.146,9.984-1.316,11.838c2.8-6.135-1.051-14.73-9.207-13.153c1.917,1.728,5.351,5.956,3.726,10.523
					c-0.98-4.156-3.2-8.362-7.892-8.99c-2.218-0.295-4.397,0.352-6.357,1.316c6.193,4.421,12.407,11.247,13.153,21.484
					c0.418,5.748-1.097,11.306-3.727,15.127c-7.633-0.049-12.483-10.167-7.674-16.661c1.571-2.123,5.178-4.965,6.576-2.63
					c-4.262,1.144-6.994,3.821-7.233,8.988c1.023-4.384,3.236-7.578,8.331-7.893c0.521,0.722,0.56,1.924,1.097,2.632
					c-1.653-9.019-7.416-15.825-16.004-18.635c0.991-3.084,3.448-5.82,6.576-6.796c1.19-0.373,2.522-0.079,3.945-0.438
					c2.565-0.65,4.547-2.203,7.454-1.974c1.967,0.155,3.459,0.912,5.263,1.974c5.338-0.826,8.729,2.043,10.74,5.261
					C1194.409,246.198,1197.338,255.649,1193.185,260.63z M1162.053,275.318c1.865-1.351,8.588-0.91,8.77-3.946
					C1168.266,273.053,1161.328,270.354,1162.053,275.318z"/>
				<path fill-rule="evenodd" clip-rule="evenodd" d="M1177.399,263.042c0.493,0.163,0.086,1.23,0.22,1.755
					c0.95,0.146,0.591-1.018,0.657-1.755c2.046,0.799,2.072,2.546,1.159,3.397c-1.147,1.069-4.087,0.623-3.354-2.301
					C1176.443,263.434,1176.915,263.362,1177.399,263.042z"/>
				<path fill-rule="evenodd" clip-rule="evenodd" fill="#FFFFFF" d="M1170.822,271.373c-0.182,3.036-6.904,2.595-8.77,3.946
					C1161.328,270.354,1168.266,273.053,1170.822,271.373z"/>
			</g>
		</g>
	</g>
	<linearGradient id="SVGID_1_" gradientUnits="userSpaceOnUse" x1="1166.0605" y1="248.9731" x2="1174.9501" y2="270.308">
		<stop  offset="0" style="stop-color:#F9ED32"/>
		<stop  offset="0.022" style="stop-color:#F9ED32"/>
		<stop  offset="0.2454" style="stop-color:#F9ED32"/>
		<stop  offset="0.2867" style="stop-color:#FAF073;stop-opacity:0.7828"/>
		<stop  offset="0.3599" style="stop-color:#FCF7BE;stop-opacity:0.3982"/>
		<stop  offset="0.4111" style="stop-color:#FEFCEB;stop-opacity:0.1286"/>
		<stop  offset="0.4356" style="stop-color:#FFFFFF;stop-opacity:0"/>
		<stop  offset="1" style="stop-color:#FFFFFF;stop-opacity:0"/>
	</linearGradient>
	<path fill-rule="evenodd" clip-rule="evenodd" fill="url(#SVGID_1_)" d="M1169.584,260.28l-3-7.113l-9.5-7.537
		c0,0,11.75-8.917,14.5-1.592s7,16.879,7,16.879l-8-0.318"/>
	<g>
		<path fill="#FFFFFF" d="M1167.416,260.215c-5.041-8.09-8.941-8.431-12.691-10.431l0.506-2.023
			c0.255,0.053,10.02,2.739,13.088,12.024L1167.416,260.215z"/>
	</g>
	<path fill-rule="evenodd" clip-rule="evenodd" d="M1185.209,325.075"/>
	<path stroke="#9B8579" stroke-miterlimit="10" d="M1179.333,320.667"/>
	<g>
		<path d="M1178.375,316.25c0.167,1.5-0.609,5.566-0.942,6.899c-4.667-1.166-8.958-1.116-9.333,4.384
			c2.166-1.833,5.834-3.908,13.584-1.158c-1.434-3.625,0.15-4.958-0.184-6.625c-2.375-3.125-1.25-1.75-3-4.25"/>
	</g>
	<g>
		<path d="M1185.683,324.316c0.167,1.5,0.333,3,0,4.333c-4.667-1.166-8.958-1.116-9.333,4.384c2.166-1.833,5.625-2.842,8.833-2.05
			c1.883,0.466,2.417,0.479,5.284,2.116c-1.033-1.6-1.217-5.1-0.459-6.666c-3-1.375-1.658-0.784-3.492-1.95"/>
	</g>
	<path fill-rule="evenodd" clip-rule="evenodd" fill="#FFFFFF" d="M1215.283,321.416l-1.75,4.25l1.5,3.25L1216,333.5l8,23
		c0,0-0.25,1.25-1.5-0.25c-27.25-8.75-26.25-30.25-26.25-30.25l-12-3.75L1215.283,321.416z"/>
	<g>
		<g>
			<path fill-rule="evenodd" clip-rule="evenodd" d="M1171.941,278.143c0,0-1.035-2.252-0.059-1.592
				c1.948,1.317,5.742,6.658,5.412,9.36c-0.496,4.057-0.897,12.03-0.257,17.607c1.499,13.053,6.775,17.717,21.014,20.869
				c1.547,16.714,9.511,25.81,23.75,29.83c-5-10.667-6.634-18.251-9.801-29.751c-8.279-2.666-14.976-8.947-19.706-15.079
				c-2.414-3.129-8.197-8.299-3.913-11.738c7.711,8.158,12.581,20.855,26.369,22.937c-1.181-18.602-10.419-31.868-21.909-40.16
				l0.25-3l3.116,1.964c12.188,9.55,22.654,25.103,23.167,46.327c-1.938,0.25-2.6-0.062-3.518,0.087
				c3.794,14.83,9.511,25.081,12.76,33.147c-15.669-0.245-26.961-10.335-31.757-23.478c-0.776-2.128-0.852-3.407-1.06-7.407
				c-3.501-0.349-7.451-2.26-9.375-2.94c-15.459-7.324-12.276-38.658-11.943-40.575S1171.941,278.143,1171.941,278.143z"/>
		</g>
	</g>
	<path fill-rule="evenodd" clip-rule="evenodd" d="M1218.333,353.667c0,0-6.917-12.167-9.333-20.167
		c0.333,6.5,1.001,8.999,5.167,19.333C1214.167,352.833,1217.166,354.001,1218.333,353.667z"/>
	<path fill-rule="evenodd" clip-rule="evenodd" d="M1212.899,353.167c0,0-6.917-12.167-9.333-20.167
		c0.333,6.5,1.001,8.999,5.167,19.333C1208.733,352.333,1211.732,353.501,1212.899,353.167z"/>
	<g>
		<linearGradient id="SVGID_2_" gradientUnits="userSpaceOnUse" x1="1190.4111" y1="242.9937" x2="1161.9215" y2="287.1398">
			<stop  offset="0" style="stop-color:#F9ED32"/>
			<stop  offset="0.022" style="stop-color:#F9ED32"/>
			<stop  offset="0.2454" style="stop-color:#F9ED32"/>
			<stop  offset="0.2867" style="stop-color:#FAF073;stop-opacity:0.7828"/>
			<stop  offset="0.3599" style="stop-color:#FCF7BE;stop-opacity:0.3982"/>
			<stop  offset="0.4111" style="stop-color:#FEFCEB;stop-opacity:0.1286"/>
			<stop  offset="0.4356" style="stop-color:#FFFFFF;stop-opacity:0"/>
			<stop  offset="1" style="stop-color:#FFFFFF;stop-opacity:0"/>
		</linearGradient>
		<path fill-rule="evenodd" clip-rule="evenodd" fill="url(#SVGID_2_)" d="M1171.49,288.332c-1-7.5,1.5-13.499,1.5-20.499
			c0-8-10.823-19-13.489-22.833c12.666-8.167,39.666-1.333,32.007,15.333c3,0.5,7.982,0,10.482-0.5c-3.156,8.834-9.5,7-15,9
			c2,3.5,6,11.999,5.5,15.499c-1,8.5-15,8-22,11c0.5-3.5,0.5-7,0-10.5"/>
	</g>
	<g>
		<path fill-rule="evenodd" clip-rule="evenodd" fill="#D9F1FD" d="M1240.691,307c0,1.65-1.35,3-3,3h-106.833c-1.65,0-3-1.35-3-3
			v-17.5c0-1.65,1.35-3,3-3h106.833c1.65,0,3,1.35,3,3V307z"/>
		<path fill="none" stroke="#39B54A" stroke-width="4" stroke-miterlimit="10" d="M1240.691,307c0,1.65-1.35,3-3,3h-106.833
			c-1.65,0-3-1.35-3-3v-17.5c0-1.65,1.35-3,3-3h106.833c1.65,0,3,1.35,3,3V307z"/>
	</g>
	<g>
		<path d="M1137.319,291.477h3.234v10.562h5.677v2.48h-8.911V291.477z"/>
		<path d="M1156.966,301.419h-4.378l-0.881,3.101h-3.3l4.488-13.043h3.895l4.489,13.043h-3.433L1156.966,301.419z M1156.307,299.118
			l-0.33-1.2c-0.396-1.3-0.793-2.841-1.167-4.201h-0.088c-0.352,1.381-0.726,2.901-1.122,4.201l-0.352,1.2H1156.307z"/>
		<path d="M1164.489,291.477h3.322l3.74,6.481l1.408,2.881h0.089c-0.133-1.381-0.396-3.221-0.396-4.761v-4.602h3.08v13.043h-3.322
			l-3.74-6.501l-1.408-2.841h-0.088c0.132,1.44,0.396,3.181,0.396,4.721v4.621h-3.08V291.477z"/>
		<path d="M1187.15,291.236c2.002,0,3.498,0.82,4.444,1.701l-1.782,1.82c-0.704-0.601-1.386-0.98-2.618-0.98
			c-2.223,0-3.784,1.58-3.784,4.201c0,2.681,1.342,4.24,4.026,4.24c0.594,0,1.188-0.14,1.54-0.399v-2.241h-2.376v-2.4h5.236v6.002
			c-1.012,0.88-2.794,1.58-4.797,1.58c-3.872,0-6.953-2.301-6.953-6.682C1180.087,293.757,1183.256,291.236,1187.15,291.236z"/>
		<path d="M1196.455,291.477h3.234v10.562h5.677v2.48h-8.911V291.477z"/>
		<path d="M1209.501,291.477h8.978v2.48h-5.743v2.621h4.885v2.46h-4.885v3.001h5.963v2.48h-9.197V291.477z"/>
		<path d="M1225.671,299.879l-4.334-8.402h3.477l1.276,3.001c0.396,0.98,0.77,1.88,1.166,2.881h0.088
			c0.418-1.001,0.813-1.9,1.21-2.881l1.298-3.001h3.389l-4.334,8.402v4.641h-3.235V299.879z"/>
	</g>
	
		<line fill-rule="evenodd" clip-rule="evenodd" fill="#FFFFFF" stroke="#39B54A" stroke-width="2" stroke-miterlimit="10" x1="1146.124" y1="280" x2="1127.575" y2="286.783"/>
	
		<line fill-rule="evenodd" clip-rule="evenodd" fill="#FFFFFF" stroke="#39B54A" stroke-width="2" stroke-miterlimit="10" x1="1240.907" y1="309.783" x2="1227.624" y2="316.5"/>
	<polygon fill-rule="evenodd" clip-rule="evenodd" fill="#FFFFFF" points="1133.875,284.75 1142.625,281.75 1142.625,285.875 
		1133.125,285.875 	"/>
	<polygon fill-rule="evenodd" clip-rule="evenodd" fill="#FFFFFF" points="1229.875,310.75 1227.125,317.125 1239.875,310.625 	"/>
	<g>
		<path fill-rule="evenodd" clip-rule="evenodd" fill="#FFFFFF" d="M1173.491,289c-1-7.5,1.5-13.5,1.5-20.5c0-8-10-16.5-10-22
			c1-9,34.5-2,30.5,14.5c3,0.5,6,0,8.5-0.5c-2,6-9.5,7-15,9c2,3.5,6,12,5.5,15.5c-1,8.5-15,8-22,11c0.5-3.5,0.5-7,0-10.5"/>
		<g>
			<path fill="#FFFFFF" d="M1174.457,288.741c-0.996-10.178,3.92-19.43-1.317-28.934c-2.142-3.886-12.28-14.831-3.366-16.552
				c10.028-1.936,27.251,5.705,24.755,17.877c-0.046,0.223,0.171,0.342,0.363,0.362c1.39,0.146,2.62,0.304,4.024,0.183
				c1.134-0.062,2.259-0.193,3.376-0.392c-0.006,1.26-0.572,2.238-1.698,2.933c-3.03,2.914-8.109,3.59-11.973,4.925
				c-0.15,0.052-0.739,0.356-0.596,0.615c2.724,4.898,7.862,13.275,4.176,18.683c-3.66,5.368-14.434,4.976-20.08,7.202
				c0.444,0.075,0.889,0.149,1.333,0.224c0.427-3.582,0.431-7.036,0.003-10.626c-0.069-0.587-2.013-0.162-1.932,0.518
				c0.416,3.495,0.421,6.865,0.003,10.374c-0.072,0.606,1.06,0.331,1.333,0.224c5.789-2.283,23.379-2.579,22.638-12.379
				c-0.232-3.076-1.41-5.96-2.598-8.776c-0.619-1.468-1.331-2.897-2.053-4.317c-0.949-1.866,1.524-2.004,2.945-2.444
				c4.665-1.443,9.181-3.303,11.16-8.073c0.164-0.395-0.646-0.394-0.82-0.361c-1.031,0.193-7.79,1.397-7.504,0.001
				c0.114-0.554,0.17-1.227,0.157-1.792c-0.042-1.895-0.465-3.551-1.31-5.247c-1.364-2.738-3.967-4.937-6.561-6.458
				c-5.553-3.259-12.404-5.167-18.857-4.243c-6.355,0.911-6.841,5.029-3.874,10.156c2.867,4.955,6.771,9.326,7.768,15.131
				c1.205,7.018-2.133,14.498-1.428,21.703C1172.582,289.838,1174.524,289.428,1174.457,288.741L1174.457,288.741z"/>
		</g>
	</g>
	<path fill-rule="evenodd" clip-rule="evenodd" fill="#FFFFFF" stroke="#39B54A" stroke-width="3.4315" stroke-miterlimit="10" d="
		M1142.491,295.25c0-24.438,19.812-44.25,44.25-44.25s44.25,19.812,44.25,44.25c0,28.214-19.055,44.25-44.25,44.25
		C1162.303,339.5,1142.491,319.688,1142.491,295.25z"/>
	<g>
		<path fill="#BABCBE" d="M1186.521,342.834c-3.419-5.555-3.327-7.239-9.33-10.928l-0.799-0.494
			c-0.412-0.274-0.812-0.546-1.204-0.811c-3.778-2.558-6.059-4.102-11.354-4.102c-6.121,0-12.45,0-17.975-5.525l3.25-3.816
			c3.476,3.475,8.974,2.342,14.725,2.342c7.442,0,11.249,2.577,15.278,5.305l1.744,1.138c6.121,3.762,10.165,6.246,14.458,13.224
			L1186.521,342.834z"/>
	</g>
	
		<circle fill-rule="evenodd" clip-rule="evenodd" fill="none" stroke="#39B54A" stroke-width="6.5865" stroke-miterlimit="10" cx="1186.741" cy="295.25" r="44.917"/>
	<g>
		<path fill-rule="evenodd" clip-rule="evenodd" fill="#FFFFFF" d="M1175.875,284.75c-1-7.5-6.75-6.375-3.884-16.75
			c2.13-7.711-9.991-19.375-14.366-23.375c7.759-6.25,38.866-0.625,34.866,15.875c3.009,2,6,0,8.5-0.5
			c-2,6-7.241,7.375-12.741,9.375c2,3.5,3.741,11.625,3.241,15.125c-1,8.5-9.366,7.5-16.366,10.5"/>
		<g>
			<path fill="#FFFFFF" d="M1176.841,284.491c-0.572-3.224-2.205-5.219-3.772-7.965c-2.116-3.707,0.278-7.718,0.091-11.594
				c-0.365-7.541-8.453-14.838-13.497-19.62c-2.259-2.142,7.158-2.666,8.45-2.651c4.07,0.043,8.148,0.937,11.966,2.3
				c6.841,2.443,13.07,7.779,11.45,15.671c-0.032,0.157,0.052,0.25,0.188,0.313c3.42,1.577,5.903,0.441,9.393-0.505
				c-0.36-0.103-0.721-0.205-1.081-0.308c-2.164,5.454-7.044,7.057-12.149,8.887c-0.156,0.056-0.731,0.35-0.595,0.615
				c2.45,4.758,3.943,11.013,3.011,16.33c-1.137,6.48-10.546,6.707-15.541,8.68c-1.262,0.499-0.097,1.044,0.742,0.713
				c8.026-3.171,17.622-3.046,16.974-14.163c-0.154-2.642-0.821-5.269-1.539-7.802c-0.329-1.165-0.78-2.28-1.259-3.389
				c-0.43-0.997,3.243-1.845,3.865-2.092c3.954-1.574,6.834-4.053,8.417-8.042c0.196-0.495-0.909-0.355-1.081-0.308
				c-1.903,0.516-7.569,2.504-7.113-1.013c0.115-0.888,0.034-1.801-0.059-2.684c-0.205-1.945-1.191-3.7-2.313-5.253
				c-2.682-3.709-7.412-5.804-11.614-7.174c-6.736-2.195-16.781-3.451-22.915,1.061c-0.14,0.103-0.303,0.339-0.134,0.495
				c5.752,5.292,12.432,11.64,14.352,19.47c0.982,4.005-1.679,7.761-0.271,11.868c1.076,3.141,3.49,5.219,4.104,8.68
				C1175.017,285.613,1176.958,285.151,1176.841,284.491L1176.841,284.491z"/>
		</g>
	</g>
	<path fill="#EF4136" stroke="#B9E5FB" stroke-width="3.9194" stroke-miterlimit="10" d="M1186.388,316.761"/>
	<path fill="#EF4136" stroke="#B9E5FB" stroke-width="3.9194" stroke-miterlimit="10" d="M1188.985,312.432"/>
	<g id="TaoKiz_1_">
		<g>
			<g>
				<path fill-rule="evenodd" clip-rule="evenodd" d="M1193.185,260.63c4.353,1.036,6.937-1.52,8.988-3.508
					c2.093,6.293-2.374,12.005-8.771,11.182c0.918,4.51,0.507,12.355-1.219,16.071c-0.274-0.958,0.291-3.186,0.342-4.014
					c0.337-5.398-1.45-11.342-2.85-14.689c3.872,1.84,9.55,0.594,10.083-3.507c-1.613,0.425-5.69,0.762-7.452-0.438
					c-1.371,0.676-2.15,1.942-4.165,1.974c0.431-1.255,1.996-1.676,2.851-2.852c2.412-3.323,1.697-9.175-1.756-11.399
					c0.239,4.207-1.873,7.901-5.261,9.208c0.14-1.266,1.636-2.044,2.192-3.288c2.256-5.041-1.006-10.562-5.26-11.838
					c1.387,2.754,2.146,9.984-1.316,11.838c2.8-6.135-1.051-14.73-9.207-13.153c1.917,1.728,5.351,5.956,3.726,10.523
					c-0.98-4.156-3.2-8.362-7.892-8.99c-2.218-0.295-4.397,0.352-6.357,1.316c6.193,4.421,12.407,11.247,13.153,21.484
					c0.418,5.748-1.097,11.306-3.727,15.127c-7.633-0.049-12.483-10.167-7.674-16.661c1.571-2.123,5.178-4.965,6.576-2.63
					c-4.262,1.144-6.994,3.821-7.233,8.988c1.023-4.384,3.236-7.578,8.331-7.893c0.521,0.722,0.56,1.924,1.097,2.632
					c-1.653-9.019-7.416-15.825-16.004-18.635c0.991-3.084,3.448-5.82,6.576-6.796c1.19-0.373,2.522-0.079,3.945-0.438
					c2.565-0.65,4.547-2.203,7.454-1.974c1.967,0.155,3.459,0.912,5.263,1.974c5.338-0.826,8.729,2.043,10.74,5.261
					C1194.409,246.198,1197.338,255.649,1193.185,260.63z M1162.053,275.318c1.865-1.351,8.588-0.91,8.77-3.946
					C1168.266,273.053,1161.328,270.354,1162.053,275.318z"/>
				<path fill-rule="evenodd" clip-rule="evenodd" d="M1177.399,263.042c0.493,0.163,0.086,1.23,0.22,1.755
					c0.95,0.146,0.591-1.018,0.657-1.755c2.046,0.799,2.072,2.546,1.159,3.397c-1.147,1.069-4.087,0.623-3.354-2.301
					C1176.443,263.434,1176.915,263.362,1177.399,263.042z"/>
				<path fill-rule="evenodd" clip-rule="evenodd" fill="#FFFFFF" d="M1170.822,271.373c-0.182,3.036-6.904,2.595-8.77,3.946
					C1161.328,270.354,1168.266,273.053,1170.822,271.373z"/>
			</g>
		</g>
	</g>
	<linearGradient id="SVGID_3_" gradientUnits="userSpaceOnUse" x1="1166.0605" y1="248.9731" x2="1174.9501" y2="270.308">
		<stop  offset="0" style="stop-color:#F9ED32"/>
		<stop  offset="0.022" style="stop-color:#F9ED32"/>
		<stop  offset="0.2454" style="stop-color:#F9ED32"/>
		<stop  offset="0.2867" style="stop-color:#FAF073;stop-opacity:0.7828"/>
		<stop  offset="0.3599" style="stop-color:#FCF7BE;stop-opacity:0.3982"/>
		<stop  offset="0.4111" style="stop-color:#FEFCEB;stop-opacity:0.1286"/>
		<stop  offset="0.4356" style="stop-color:#FFFFFF;stop-opacity:0"/>
		<stop  offset="1" style="stop-color:#FFFFFF;stop-opacity:0"/>
	</linearGradient>
	<path fill-rule="evenodd" clip-rule="evenodd" fill="url(#SVGID_3_)" d="M1169.584,260.28l-3-7.113l-9.5-7.537
		c0,0,11.75-8.917,14.5-1.592s7,16.879,7,16.879l-8-0.318"/>
	<g>
		<path fill="#FFFFFF" d="M1167.416,260.215c-5.041-8.09-8.941-8.431-12.691-10.431l0.506-2.023
			c0.255,0.053,10.02,2.739,13.088,12.024L1167.416,260.215z"/>
	</g>
	<path fill-rule="evenodd" clip-rule="evenodd" d="M1185.209,325.075"/>
	<path stroke="#9B8579" stroke-miterlimit="10" d="M1179.333,320.667"/>
	<g>
		<path d="M1178.375,316.25c0.167,1.5-0.609,5.566-0.942,6.899c-4.667-1.166-8.958-1.116-9.333,4.384
			c2.166-1.833,5.834-3.908,13.584-1.158c-1.434-3.625,0.15-4.958-0.184-6.625c-2.375-3.125-1.25-1.75-3-4.25"/>
	</g>
	<g>
		<path d="M1185.683,324.316c0.167,1.5,0.333,3,0,4.333c-4.667-1.166-8.958-1.116-9.333,4.384c2.166-1.833,5.625-2.842,8.833-2.05
			c1.883,0.466,2.417,0.479,5.284,2.116c-1.033-1.6-1.217-5.1-0.459-6.666c-3-1.375-1.658-0.784-3.492-1.95"/>
	</g>
	<path fill-rule="evenodd" clip-rule="evenodd" fill="#FFFFFF" d="M1215.283,321.416l-1.75,4.25l1.5,3.25L1216,333.5l8,23
		c0,0-0.25,1.25-1.5-0.25c-27.25-8.75-26.25-30.25-26.25-30.25l-12-3.75L1215.283,321.416z"/>
	<g>
		<g>
			<path fill-rule="evenodd" clip-rule="evenodd" d="M1171.941,278.143c0,0-1.035-2.252-0.059-1.592
				c1.948,1.317,5.742,6.658,5.412,9.36c-0.496,4.057-0.897,12.03-0.257,17.607c1.499,13.053,6.775,17.717,21.014,20.869
				c1.547,16.714,9.511,25.81,23.75,29.83c-5-10.667-6.634-18.251-9.801-29.751c-8.279-2.666-14.976-8.947-19.706-15.079
				c-2.414-3.129-8.197-8.299-3.913-11.738c7.711,8.158,12.581,20.855,26.369,22.937c-1.181-18.602-10.419-31.868-21.909-40.16
				l0.25-3l3.116,1.964c12.188,9.55,22.654,25.103,23.167,46.327c-1.938,0.25-2.6-0.062-3.518,0.087
				c3.794,14.83,9.511,25.081,12.76,33.147c-15.669-0.245-26.961-10.335-31.757-23.478c-0.776-2.128-0.852-3.407-1.06-7.407
				c-3.501-0.349-7.451-2.26-9.375-2.94c-15.459-7.324-12.276-38.658-11.943-40.575S1171.941,278.143,1171.941,278.143z"/>
		</g>
	</g>
	<path fill-rule="evenodd" clip-rule="evenodd" d="M1218.333,353.667c0,0-6.917-12.167-9.333-20.167
		c0.333,6.5,1.001,8.999,5.167,19.333C1214.167,352.833,1217.166,354.001,1218.333,353.667z"/>
	<path fill-rule="evenodd" clip-rule="evenodd" d="M1212.899,353.167c0,0-6.917-12.167-9.333-20.167
		c0.333,6.5,1.001,8.999,5.167,19.333C1208.733,352.333,1211.732,353.501,1212.899,353.167z"/>
	<g>
		<linearGradient id="SVGID_4_" gradientUnits="userSpaceOnUse" x1="1190.4111" y1="242.9937" x2="1161.9215" y2="287.1398">
			<stop  offset="0" style="stop-color:#F9ED32"/>
			<stop  offset="0.022" style="stop-color:#F9ED32"/>
			<stop  offset="0.2454" style="stop-color:#F9ED32"/>
			<stop  offset="0.2867" style="stop-color:#FAF073;stop-opacity:0.7828"/>
			<stop  offset="0.3599" style="stop-color:#FCF7BE;stop-opacity:0.3982"/>
			<stop  offset="0.4111" style="stop-color:#FEFCEB;stop-opacity:0.1286"/>
			<stop  offset="0.4356" style="stop-color:#FFFFFF;stop-opacity:0"/>
			<stop  offset="1" style="stop-color:#FFFFFF;stop-opacity:0"/>
		</linearGradient>
		<path fill-rule="evenodd" clip-rule="evenodd" fill="url(#SVGID_4_)" d="M1171.49,288.332c-1-7.5,1.5-13.499,1.5-20.499
			c0-8-10.823-19-13.489-22.833c12.666-8.167,39.666-1.333,32.007,15.333c3,0.5,7.982,0,10.482-0.5c-3.156,8.834-9.5,7-15,9
			c2,3.5,6,11.999,5.5,15.499c-1,8.5-15,8-22,11c0.5-3.5,0.5-7,0-10.5"/>
	</g>
	<g>
		<path fill-rule="evenodd" clip-rule="evenodd" fill="#D9F1FD" d="M1240.691,307c0,1.65-1.35,3-3,3h-106.833c-1.65,0-3-1.35-3-3
			v-17.5c0-1.65,1.35-3,3-3h106.833c1.65,0,3,1.35,3,3V307z"/>
		<path fill="none" stroke="#39B54A" stroke-width="4" stroke-miterlimit="10" d="M1240.691,307c0,1.65-1.35,3-3,3h-106.833
			c-1.65,0-3-1.35-3-3v-17.5c0-1.65,1.35-3,3-3h106.833c1.65,0,3,1.35,3,3V307z"/>
	</g>
	<g>
		<path d="M1137.319,291.477h3.234v10.562h5.677v2.48h-8.911V291.477z"/>
		<path d="M1156.966,301.419h-4.378l-0.881,3.101h-3.3l4.488-13.043h3.895l4.489,13.043h-3.433L1156.966,301.419z M1156.307,299.118
			l-0.33-1.2c-0.396-1.3-0.793-2.841-1.167-4.201h-0.088c-0.352,1.381-0.726,2.901-1.122,4.201l-0.352,1.2H1156.307z"/>
		<path d="M1164.489,291.477h3.322l3.74,6.481l1.408,2.881h0.089c-0.133-1.381-0.396-3.221-0.396-4.761v-4.602h3.08v13.043h-3.322
			l-3.74-6.501l-1.408-2.841h-0.088c0.132,1.44,0.396,3.181,0.396,4.721v4.621h-3.08V291.477z"/>
		<path d="M1187.15,291.236c2.002,0,3.498,0.82,4.444,1.701l-1.782,1.82c-0.704-0.601-1.386-0.98-2.618-0.98
			c-2.223,0-3.784,1.58-3.784,4.201c0,2.681,1.342,4.24,4.026,4.24c0.594,0,1.188-0.14,1.54-0.399v-2.241h-2.376v-2.4h5.236v6.002
			c-1.012,0.88-2.794,1.58-4.797,1.58c-3.872,0-6.953-2.301-6.953-6.682C1180.087,293.757,1183.256,291.236,1187.15,291.236z"/>
		<path d="M1196.455,291.477h3.234v10.562h5.677v2.48h-8.911V291.477z"/>
		<path d="M1209.501,291.477h8.978v2.48h-5.743v2.621h4.885v2.46h-4.885v3.001h5.963v2.48h-9.197V291.477z"/>
		<path d="M1225.671,299.879l-4.334-8.402h3.477l1.276,3.001c0.396,0.98,0.77,1.88,1.166,2.881h0.088
			c0.418-1.001,0.813-1.9,1.21-2.881l1.298-3.001h3.389l-4.334,8.402v4.641h-3.235V299.879z"/>
	</g>
	
		<line fill-rule="evenodd" clip-rule="evenodd" fill="#FFFFFF" stroke="#39B54A" stroke-width="2" stroke-miterlimit="10" x1="1146.124" y1="280" x2="1127.575" y2="286.783"/>
	
		<line fill-rule="evenodd" clip-rule="evenodd" fill="#FFFFFF" stroke="#39B54A" stroke-width="2" stroke-miterlimit="10" x1="1240.907" y1="309.783" x2="1227.624" y2="316.5"/>
	<polygon fill-rule="evenodd" clip-rule="evenodd" fill="#FFFFFF" points="22.509,102.401 40.009,96.401 40.009,104.651 
		21.009,104.651 	"/>
	<polygon fill-rule="evenodd" clip-rule="evenodd" fill="#FFFFFF" points="214.509,154.401 209.009,167.151 234.509,154.151 	"/>
	<g>
		<path fill-rule="evenodd" clip-rule="evenodd" fill="#FFFFFF" d="M101.741,110.901c-2-15,3-27,3-41c0-16-20-33-20-44
			c2-18,69-4,61,29c6,1,12,0,17-1c-4,12-19,14-30,18c4,7,12,24,11,31c-2,17-30,16-44,22c1-7,1-14,0-21"/>
		<g>
			<path fill="#FFFFFF" d="M103.673,110.384c-1.393-12.084,1.721-23.628,2.783-35.581c0.831-9.349-2.075-16.995-6.955-24.867
				c-4.278-6.9-22.027-27.159-5.69-30.436c19.814-3.975,55.5,11.08,50.004,35.666c-0.101,0.452,0.35,0.674,0.727,0.725
				c6.074,0.817,11.931,0.164,17.914-1.002c-0.547-0.241-1.093-0.481-1.64-0.723C156.44,65.832,142.346,67.531,132,71.189
				c-0.296,0.105-1.481,0.714-1.19,1.23c3.557,6.314,6.585,12.964,8.962,19.81c2.351,6.768,3.492,13.877-2.233,19.288
				c-4.993,4.72-12.876,6.127-19.337,7.579c-6.458,1.451-13.051,2.567-19.202,5.094c0.889,0.149,1.778,0.298,2.667,0.448
				c0.924-7.118,0.931-14.133,0.006-21.253c-0.153-1.181-4.039-0.318-3.863,1.035c0.901,6.939,0.907,13.806,0.006,20.747
				c-0.157,1.208,2.128,0.669,2.667,0.448c13.038-5.355,30.002-4.017,40.792-14.215c4.828-4.563,4.996-10.635,3.444-16.671
				c-2.088-8.125-5.942-16.06-10.046-23.344c-0.396,0.41-0.793,0.82-1.19,1.23c11.365-4.019,26.38-6.167,31.185-18.977
				c0.298-0.795-1.268-0.795-1.64-0.723c-3.7,0.721-7.364,1.28-11.142,1.379c-1.339,0.035-4.224,0.551-3.863-1.391
				c0.155-0.836,0.218-1.687,0.278-2.534c0.215-3.013-0.322-5.996-1.342-8.823c-2.265-6.275-7.482-11.106-12.905-14.703
				c-10.704-7.101-24.872-10.944-37.697-9.613c-4.248,0.44-8.764,1.787-11.758,4.975c-4.545,4.839,0.628,12.429,3.307,16.816
				c5.794,9.486,13.834,18.688,14.867,30.196c0.621,6.914-1.161,14.271-2.207,21.074c-1.083,7.048-1.575,14.027-0.756,21.128
				C99.944,112.59,103.83,111.746,103.673,110.384L103.673,110.384z"/>
		</g>
	</g>
	<path fill-rule="evenodd" clip-rule="evenodd" fill="#FFFFFF" stroke="#39B54A" stroke-width="6.863" stroke-miterlimit="10" d="
		M39.741,123.401c0-48.877,39.623-88.5,88.5-88.5s88.5,39.623,88.5,88.5c0,56.428-38.109,88.5-88.5,88.5
		C79.364,211.901,39.741,172.278,39.741,123.401z"/>
	<g>
		<path fill="#BABCBE" d="M127.8,218.569c-6.838-11.109-6.654-14.479-18.66-21.855l-1.598-0.988
			c-0.824-0.549-1.625-1.092-2.408-1.621c-7.557-5.115-12.117-8.203-22.709-8.203c-12.242,0-24.9,0-35.949-11.051l6.5-7.633
			c6.951,6.949,17.947,4.684,29.449,4.684c14.885,0,22.498,5.154,30.557,10.609l3.488,2.275
			c12.242,7.523,20.33,12.492,28.916,26.447L127.8,218.569z"/>
	</g>
	<g>
		<path fill="#39B54A" d="M128.241,219.822c-53.167,0-96.42-43.254-96.42-96.42s43.254-96.42,96.42-96.42s96.42,43.254,96.42,96.42
			S181.408,219.822,128.241,219.822z M128.241,40.154c-45.903,0-83.248,37.345-83.248,83.248s37.345,83.248,83.248,83.248
			s83.248-37.345,83.248-83.248S174.144,40.154,128.241,40.154z"/>
	</g>
	<g>
		<path fill-rule="evenodd" clip-rule="evenodd" fill="#FFFFFF" d="M106.509,102.401c-2-15-13.5-12.75-7.768-33.5
			c4.26-15.422-19.982-38.75-28.732-46.75c15.518-12.5,77.732-1.25,69.732,31.75c6.018,4,12,0,17-1c-4,12-14.482,14.75-25.482,18.75
			c4,7,7.482,23.25,6.482,30.25c-2,17-18.732,15-32.732,21"/>
		<g>
			<path fill="#FFFFFF" d="M108.44,101.884c-1.091-7.024-5.505-11.147-8.209-17.36c-3.537-8.126,2.21-16.531,0.276-24.916
				c-2.002-8.675-8.279-16.489-13.91-23.108c-2.826-3.322-5.856-6.471-8.95-9.543c-1.358-1.348-2.746-2.666-4.142-3.974
				c-1.47-1.377-1.739-0.9,0.178-1.943c5.6-3.047,12.983-3.019,19.159-2.749c7.835,0.342,15.667,2.085,22.981,4.878
				c13.14,5.017,25.434,15.621,21.992,30.996c-0.073,0.327,0.116,0.484,0.377,0.627c6.506,3.575,12.162,0.607,18.785-1.01
				c-0.721-0.206-1.441-0.411-2.162-0.617c-4.031,11.02-14.196,14.132-24.298,17.773c-0.303,0.109-1.474,0.707-1.19,1.23
				c5.063,9.351,8.551,23.406,5.691,33.867c-3.322,12.156-21.066,12.171-30.751,16.153c-2.508,1.031-0.192,2.113,1.482,1.425
				c10.308-4.238,25.18-4.139,31.632-14.673c3.152-5.147,2.659-11.683,1.883-17.384c-0.943-6.928-2.727-14.241-6.074-20.423
				c-0.396,0.41-0.793,0.82-1.19,1.23c11.089-3.997,22.273-7.716,26.667-19.727c0.367-1.003-1.801-0.705-2.162-0.617
				c-2.023,0.494-15.597,5.007-14.63,0.688c0.471-2.105,0.557-4.277,0.46-6.424c-0.177-3.926-1.726-7.583-3.841-10.835
				c-4.959-7.625-14.004-12.163-22.321-15.067c-13.639-4.762-35.224-8.085-47.698,1.512c-0.274,0.211-0.611,0.675-0.267,0.991
				c11.436,10.487,25.931,23.877,28.858,39.797c1.43,7.78-3.656,14.98-0.699,22.877c0.933,2.49,2.682,4.661,4.165,6.834
				c2.197,3.222,3.448,6.684,4.045,10.525C104.763,104.115,108.648,103.22,108.44,101.884L108.44,101.884z"/>
		</g>
	</g>
	<path fill="#EF4136" stroke="#B9E5FB" stroke-width="7.8388" stroke-miterlimit="10" d="M127.534,166.423"/>
	<path fill="#EF4136" stroke="#B9E5FB" stroke-width="7.8388" stroke-miterlimit="10" d="M132.729,157.765"/>
	<g id="TaoKiz_2_">
		<g>
			<g>
				<path fill-rule="evenodd" clip-rule="evenodd" d="M109.558,58.984c0.986,0.325,0.172,2.46,0.439,3.51
					c1.9,0.293,1.182-2.036,1.314-3.51c4.092,1.598,4.145,5.093,2.318,6.794c-2.295,2.139-8.174,1.245-6.707-4.602
					C107.646,59.77,108.589,59.626,109.558,58.984z"/>
				<path fill-rule="evenodd" clip-rule="evenodd" fill="#FFFFFF" d="M96.403,75.646c-0.363,6.071-13.809,5.19-17.539,7.892
					C77.415,73.61,91.29,79.008,96.403,75.646z"/>
			</g>
		</g>
	</g>
	<linearGradient id="SVGID_5_" gradientUnits="userSpaceOnUse" x1="86.8804" y1="30.8477" x2="104.6598" y2="73.5183">
		<stop  offset="0" style="stop-color:#F9ED32"/>
		<stop  offset="0.022" style="stop-color:#F9ED32"/>
		<stop  offset="0.2454" style="stop-color:#F9ED32"/>
		<stop  offset="0.2867" style="stop-color:#FAF073;stop-opacity:0.7828"/>
		<stop  offset="0.3599" style="stop-color:#FCF7BE;stop-opacity:0.3982"/>
		<stop  offset="0.4111" style="stop-color:#FEFCEB;stop-opacity:0.1286"/>
		<stop  offset="0.4356" style="stop-color:#FFFFFF;stop-opacity:0"/>
		<stop  offset="1" style="stop-color:#FFFFFF;stop-opacity:0"/>
	</linearGradient>
	<path fill-rule="evenodd" clip-rule="evenodd" fill="url(#SVGID_5_)" d="M93.927,53.461l-6-14.227l-19-15.073
		c0,0,23.5-17.834,29-3.185s14,33.758,14,33.758l-16-0.637"/>
	<g>
		<path fill="#FFFFFF" d="M89.591,53.331c-10.082-16.18-17.883-16.862-25.383-20.862l1.012-4.046
			c0.51,0.105,20.039,5.479,26.176,24.049L89.591,53.331z"/>
	</g>
	<path fill-rule="evenodd" clip-rule="evenodd" d="M125.177,183.052"/>
	<path stroke="#9B8579" stroke-width="2" stroke-miterlimit="10" d="M113.425,174.235"/>
	<g>
		<path d="M111.509,165.401c0.334,3-1.219,11.133-1.885,13.799c-9.334-2.332-17.916-2.232-18.666,8.768
			c4.332-3.666,11.668-7.816,27.168-2.316c-2.867-7.25,0.301-9.916-0.367-13.25c-4.75-6.25-2.5-3.5-6-8.5"/>
	</g>
	<g>
		<path d="M126.124,181.534c0.334,3,0.666,6,0,8.666c-9.334-2.332-17.916-2.232-18.666,8.768c4.332-3.666,11.25-5.684,17.666-4.1
			c3.766,0.932,4.834,0.957,10.568,4.232c-2.066-3.199-2.434-10.199-0.918-13.332c-6-2.75-3.316-1.568-6.984-3.9"/>
	</g>
	<path fill-rule="evenodd" clip-rule="evenodd" fill="#FFFFFF" d="M185.325,175.733l-3.5,8.5l3,6.5l1.934,9.168l16,46
		c0,0-0.5,2.5-3-0.5c-54.5-17.5-52.5-60.5-52.5-60.5l-24-7.5L185.325,175.733z"/>
	<g>
		<g>
			<path fill-rule="evenodd" clip-rule="evenodd" d="M98.642,89.187c0,0-2.07-4.504-0.117-3.184
				c3.896,2.635,11.484,13.316,10.824,18.721c-0.992,8.113-1.795,24.061-0.514,35.215c2.998,26.105,13.551,35.434,42.027,41.738
				c3.094,33.428,19.021,51.619,47.5,59.66c-10-21.334-13.268-36.502-19.602-59.502c-16.559-5.332-29.951-17.895-39.412-30.158
				c-4.828-6.258-16.395-16.598-7.826-23.477c15.422,16.316,25.162,41.711,52.738,45.873c-2.361-37.203-20.838-63.736-43.818-80.32
				l0.5-6l6.232,3.928c24.375,19.1,45.309,50.205,46.334,92.654c-3.875,0.5-5.199-0.125-7.035,0.174
				c7.588,29.66,19.021,50.162,25.52,66.295c-31.338-0.49-53.922-20.67-63.514-46.955c-1.553-4.256-1.703-6.814-2.119-14.814
				c-7.002-0.697-14.902-4.52-18.75-5.881c-30.918-14.648-24.553-77.316-23.887-81.15S98.642,89.187,98.642,89.187z"/>
		</g>
	</g>
	<path fill-rule="evenodd" clip-rule="evenodd" d="M191.425,240.235c0,0-13.834-24.334-18.666-40.334
		c0.666,13,2.002,17.998,10.334,38.666C183.093,238.567,189.091,240.903,191.425,240.235z"/>
	<path fill-rule="evenodd" clip-rule="evenodd" d="M180.558,239.235c0,0-13.834-24.334-18.666-40.334
		c0.666,13,2.002,17.998,10.334,38.666C172.226,237.567,178.224,239.903,180.558,239.235z"/>
	<g>
		<linearGradient id="SVGID_6_" gradientUnits="userSpaceOnUse" x1="135.5806" y1="18.8882" x2="78.6016" y2="107.18">
			<stop  offset="0" style="stop-color:#F9ED32"/>
			<stop  offset="0.022" style="stop-color:#F9ED32"/>
			<stop  offset="0.2454" style="stop-color:#F9ED32"/>
			<stop  offset="0.2867" style="stop-color:#FAF073;stop-opacity:0.7828"/>
			<stop  offset="0.3599" style="stop-color:#FCF7BE;stop-opacity:0.3982"/>
			<stop  offset="0.4111" style="stop-color:#FEFCEB;stop-opacity:0.1286"/>
			<stop  offset="0.4356" style="stop-color:#FFFFFF;stop-opacity:0"/>
			<stop  offset="1" style="stop-color:#FFFFFF;stop-opacity:0"/>
		</linearGradient>
		<path fill-rule="evenodd" clip-rule="evenodd" fill="url(#SVGID_6_)" d="M97.739,109.565c-2-15,3-26.998,3-40.998
			c0-16-21.646-37.999-26.979-45.666c25.332-16.333,79.332-2.666,64.014,30.666c6,1,15.965,0,20.965-1c-6.312,17.668-19,14-30,18
			c4,7,12,23.998,11,30.998c-2,17-30,16-44,22c1-7,1-14,0-21"/>
	</g>
	<g>
		<g>
			<path fill-rule="evenodd" clip-rule="evenodd" fill="#D9F1FD" d="M236.142,146.901c0,3.3-2.7,6-6,6H16.476c-3.3,0-6-2.7-6-6v-35
				c0-3.3,2.7-6,6-6h213.666c3.3,0,6,2.7,6,6V146.901z"/>
		</g>
		<g>
			<path fill="#39B54A" d="M230.142,156.901H16.476c-5.514,0-10-4.486-10-10v-35c0-5.514,4.486-10,10-10h213.666
				c5.514,0,10,4.486,10,10v35C240.142,152.416,235.656,156.901,230.142,156.901z M16.476,109.901c-1.084,0-2,0.916-2,2v35
				c0,1.084,0.916,2,2,2h213.666c1.084,0,2-0.916,2-2v-35c0-1.084-0.916-2-2-2H16.476z"/>
		</g>
	</g>
	<g>
		<path d="M29.397,115.854h6.469v21.125H47.22v4.961H29.397V115.854z"/>
		<path d="M68.69,135.739h-8.756l-1.762,6.201h-6.6l8.977-26.086h7.789l8.979,26.086h-6.865L68.69,135.739z M67.372,131.138
			l-0.66-2.4c-0.793-2.6-1.586-5.682-2.334-8.402h-0.176c-0.703,2.762-1.451,5.803-2.244,8.402l-0.703,2.4H67.372z"/>
		<path d="M83.737,115.854h6.645l7.48,12.963l2.816,5.762h0.178c-0.266-2.762-0.793-6.441-0.793-9.521v-9.203h6.16v26.086h-6.645
			l-7.48-13.002l-2.816-5.682h-0.176c0.264,2.881,0.791,6.361,0.791,9.441v9.242h-6.16V115.854z"/>
		<path d="M129.06,115.374c4.004,0,6.996,1.641,8.889,3.402l-3.564,3.641c-1.408-1.201-2.771-1.961-5.236-1.961
			c-4.445,0-7.568,3.16-7.568,8.402c0,5.361,2.684,8.48,8.053,8.48c1.188,0,2.377-0.279,3.08-0.799v-4.482h-4.752v-4.801h10.473
			v12.004c-2.023,1.76-5.588,3.16-9.594,3.16c-7.744,0-13.906-4.602-13.906-13.363C114.933,120.415,121.271,115.374,129.06,115.374z
			"/>
		<path d="M147.669,115.854h6.469v21.125h11.354v4.961h-17.822V115.854z"/>
		<path d="M173.761,115.854h17.955v4.961h-11.486v5.242h9.77v4.92h-9.77v6.002h11.926v4.961h-18.395V115.854z"/>
		<path d="M206.101,132.659l-8.668-16.805h6.953l2.553,6.002c0.791,1.961,1.539,3.76,2.332,5.762h0.176
			c0.836-2.002,1.627-3.801,2.42-5.762l2.596-6.002h6.777l-8.668,16.805v9.281h-6.471V132.659z"/>
	</g>
	<g>
		<line fill-rule="evenodd" clip-rule="evenodd" fill="#FFFFFF" x1="47.007" y1="92.901" x2="9.909" y2="106.468"/>
		
			<rect x="26.458" y="79.934" transform="matrix(0.3435 0.9392 -0.9392 0.3435 112.3026 38.7177)" fill="#39B54A" width="4" height="39.5"/>
	</g>
	<g>
		<line fill-rule="evenodd" clip-rule="evenodd" fill="#FFFFFF" x1="236.573" y1="152.468" x2="210.007" y2="165.901"/>
		
			<rect x="221.29" y="144.3" transform="matrix(0.4512 0.8924 -0.8924 0.4512 264.5974 -111.9093)" fill="#39B54A" width="4" height="29.77"/>
	</g>
	<path fill-rule="evenodd" clip-rule="evenodd" d="M141.128,54.162c8.705,2.072,13.873-3.039,17.977-7.017
		c4.186,12.586-4.748,24.01-17.541,22.363c1.836,9.021,1.014,24.711-2.438,32.143c-0.549-1.916,0.582-6.371,0.684-8.027
		c0.674-10.796-2.9-22.685-5.699-29.378c7.744,3.68,19.1,1.188,20.166-7.015c-3.227,0.851-11.381,1.524-14.904-0.877
		c-2.742,1.352-4.301,3.884-8.33,3.947c0.861-2.51,3.992-3.353,5.701-5.703c4.824-6.646,3.395-18.351-3.512-22.799
		c0.479,8.413-3.746,15.802-10.521,18.415c0.279-2.532,3.271-4.089,4.385-6.576c4.512-10.081-2.012-21.125-10.52-23.677
		c2.773,5.508,4.291,19.969-2.633,23.677c5.6-12.27-2.102-29.461-18.414-26.307c3.834,3.456,10.701,11.912,7.451,21.046
		c-1.961-8.312-6.4-16.724-15.783-17.979c-4.436-0.59-8.795,0.704-12.715,2.633c12.387,8.843,24.814,22.493,26.307,42.968
		c0.836,11.495-2.193,22.611-7.453,30.254c-15.266-0.098-24.967-20.335-15.348-33.322c3.143-4.245,10.355-9.93,13.152-5.261
		c-8.523,2.288-13.988,7.643-14.467,17.977c2.047-8.769,6.473-15.156,16.662-15.785c1.043,1.444,1.119,3.848,2.193,5.264
		c-3.307-18.037-14.832-31.649-32.008-37.27c1.982-6.169,6.896-11.64,13.152-13.593c2.381-0.746,5.045-0.158,7.891-0.876
		c5.131-1.301,9.094-4.406,14.908-3.948c3.934,0.311,6.918,1.824,10.525,3.948c10.676-1.651,17.459,4.087,21.48,10.521
		C143.577,25.298,149.435,44.199,141.128,54.162z M78.864,83.538c3.73-2.701,17.176-1.82,17.539-7.892
		C91.29,79.008,77.415,73.61,78.864,83.538z"/>
</g>
</svg>
