<?xml version="1.0" encoding="UTF-8" standalone="no"?>
<svg
   xmlns:dc="http://purl.org/dc/elements/1.1/"
   xmlns:cc="http://creativecommons.org/ns#"
   xmlns:rdf="http://www.w3.org/1999/02/22-rdf-syntax-ns#"
   xmlns:svg="http://www.w3.org/2000/svg"
   xmlns="http://www.w3.org/2000/svg"
   viewBox="0 0 170.66667 170.66667"
   height="170.66667"
   width="170.66667"
   id="svg967"
   version="1.1">
  <metadata
     id="metadata973">
    <rdf:RDF>
      <cc:Work
         rdf:about="">
        <dc:format>image/svg+xml</dc:format>
        <dc:type
           rdf:resource="http://purl.org/dc/dcmitype/StillImage" />
        <dc:title></dc:title>
      </cc:Work>
    </rdf:RDF>
  </metadata>
  <defs
     id="defs971" />
  <path
     id="path1520"
     d="m 9.4915246,158.38238 v -8.82584 l 4.8649604,0.41382 c 8.62142,0.73336 9.72761,9.16648 1.33389,10.16905 -2.41446,0.2884 -3.53218,1.21281 -3.53218,2.92132 0,1.37467 -0.6,2.87023 -1.33334,3.32345 -0.8375904,0.51767 -1.3333304,-2.45742 -1.3333304,-8.0018 z m 7.7491204,-2.98289 c -0.66935,-3.47564 -5.08245,-3.86327 -5.08245,-0.4464 0,1.90812 0.8563,2.76443 2.76443,2.76443 1.90813,0 2.62615,-0.71803 2.31802,-2.31803 z m 4.25088,10.03581 c 0,-3.61616 5.64057,-15.71778 7.32606,-15.71778 2.32785,0 7.79067,14.74994 6.09195,16.44865 -0.88523,0.88524 -1.6161,0.58655 -2.18362,-0.89236 -1.09322,-2.84891 -5.65674,-2.85736 -8.79607,-0.0163 -2.1049,1.90487 -2.43832,1.92919 -2.43832,0.17776 z m 8.80932,-7.16017 c -0.44513,-1.15997 -0.81851,-2.80997 -0.82974,-3.66667 -0.0272,-2.07789 -2.59934,1.9471 -2.62583,4.10906 -0.0112,0.91666 0.94378,1.66666 2.12224,1.66666 1.40602,0 1.86441,-0.72506 1.33333,-2.10905 z m 9.52401,7.85661 c -1.28333,-0.33536 -2.33333,-1.45076 -2.33333,-2.47865 0,-1.36545 1.07754,-1.6534 4,-1.06891 4.98101,0.9962 5.46359,-1.70954 0.6325,-3.54632 -4.105,-1.56072 -5.49768,-4.6713 -3.28507,-7.33732 2.09309,-2.52202 9.31924,-2.65222 9.31924,-0.16792 0,1.21715 -1.09812,1.60519 -3.33334,1.1779 -2.44368,-0.46714 -3.33333,-0.0619 -3.33333,1.51822 0,1.18672 1.07864,2.15544 2.4,2.15544 5.40783,0 7.62692,6.8214 3.02099,9.28643 -2.68255,1.43565 -3.22381,1.47087 -7.08766,0.46113 z m 15.85265,-0.007 c -0.46896,-0.46832 -0.85264,-3.752 -0.85264,-7.29646 0,-4.8395 -0.49809,-6.44444 -2.00001,-6.44444 -1.1,0 -2,-0.6 -2,-1.33333 0,-0.73333 2.70001,-1.33333 6.00001,-1.33333 3.3,0 6,0.6 6,1.33333 0,0.73333 -0.9,1.33333 -2,1.33333 -1.50793,0 -2,1.62088 -2,6.58798 0,6.2265 -1.24491,9.05601 -3.14736,7.15356 z m 15.14736,-1.07423 c 0,-1.1 0.6,-2 1.33333,-2 0.73333,0 1.33333,-2.13541 1.33333,-4.74536 0,-2.60995 -0.55854,-4.40016 -1.2412,-3.97825 -0.68266,0.42192 -1.59947,0.18742 -2.03734,-0.52107 -0.6926,-1.12064 3.07555,-4.08865 5.19089,-4.08865 0.41487,0 0.75432,2.93581 0.75432,6.52401 0,4.68669 0.58705,6.74929 2.08451,7.32392 3.18527,1.22231 0.91494,3.4854 -3.49653,3.4854 -2.59672,0 -3.92131,-0.67559 -3.92131,-2 z m 17.33333,-6.66633 c 0,-4.88889 0.5812,-8.66666 1.33333,-8.66666 0.73334,0 1.33334,1.5 1.33334,3.33333 0,2.66667 0.66666,3.33333 3.33333,3.33333 2.69534,0 3.33333,-0.65925 3.33333,-3.44444 0,-2.16297 0.62007,-3.23776 1.66667,-2.88889 2.020135,0.67339 2.337855,15.6458 0.33333,15.70812 -0.73333,0.0228 -1.52318,-1.4772 -1.75523,-3.33333 -0.32138,-2.57075 -1.19496,-3.37479 -3.66666,-3.37479 -2.71642,0 -3.24477,0.65133 -3.24477,4 0,2.2 -0.6,4 -1.33334,4 -0.75213,0 -1.33333,-3.77777 -1.33333,-8.66667 z m 18.963335,6.59107 c -5.83829,-4.08931 -3.11567,-15.25773 3.7195,-15.25773 7.57366,0 10.65084,12.43192 3.9631,16.01109 -3.30602,1.76932 -4.20711,1.68096 -7.6826,-0.75336 z m 7.45515,-6.93357 c 0.49183,-5.1034 -2.751,-7.22975 -6.02808,-3.95267 -3.1106,3.1106 -1.2335,9.26824 2.65672,8.71507 2.24909,-0.31982 3.05261,-1.45488 3.37136,-4.7624 z m 9.24818,7.56904 c -1.77059,-1.03127 -2.33334,-3.11171 -2.33334,-8.62612 0,-8.9268 2.36564,-9.68148 2.92695,-0.93375 0.34066,5.30899 0.83769,6.33333 3.07305,6.33333 2.23536,0 2.7324,-1.02434 3.07306,-6.33333 0.56198,-8.75813 2.92694,-7.98804 2.92694,0.95309 0,5.83926 -0.51221,7.56055 -2.57901,8.66667 -3.15109,1.68641 -4.10325,1.67836 -7.08765,-0.0599 z m 13.66666,-7.22834 v -8.82584 l 4.86496,0.41382 c 6.0191,0.512 8.56608,3.81618 6.04876,7.84702 -1.36472,2.18528 -1.38885,3.19102 -0.11346,4.72779 1.18682,1.43005 1.22436,2.34771 0.14037,3.43169 -1.08399,1.08399 -1.91049,0.53407 -3.09084,-2.0565 -1.87432,-4.11376 -5.18312,-4.71906 -5.18312,-0.9482 0,1.42338 -0.6,2.9588 -1.33333,3.41202 -0.8376,0.51767 -1.33334,-2.45742 -1.33334,-8.0018 z m 7.74912,-3.68017 c 0.30814,-1.6 -0.40989,-2.31803 -2.31802,-2.31803 -1.90812,0 -2.76443,0.85631 -2.76443,2.76443 0,3.41687 4.41311,3.02924 5.08245,-0.4464 z M 60.084895,140.53722 c -22.33928,-7.14885 -38.91397,-24.23243 -44.77823,-46.153037 -4.23325,-15.823882 -1.11304,-36.851649 7.4772,-50.390422 l 4.05467,-6.390422 3.2846,2.390422 c 4.09221,2.97818 4.09708,3.328658 0.13085,9.419008 -5.7769,8.870721 -7.80445,17.701716 -7.19084,31.319759 0.69844,15.50083 4.52872,24.460162 15.27274,35.724142 27.66105,28.99971 74.959965,21.73607 92.666335,-14.23066 3.77503,-7.668183 4.4582,-10.61515 4.92267,-21.234813 0.84034,-19.213865 -4.76701,-32.700806 -18.90783,-45.477603 -11.22357,-10.140943 -29.827955,-16.442222 -42.692615,-14.45993 -7.32692,1.128992 -18.16625,4.630984 -18.16625,5.869186 0,0.545064 2.19122,1.546844 4.86938,2.226178 6.28808,1.595016 8.60417,4.999696 5.50761,8.096258 -2.10374,2.103741 -2.98014,2.052461 -13.9774,-0.817852 -13.6607,-3.565479 -16.39959,-4.789562 -16.39959,-7.329407 0,-3.530624 11.86555,-27.4126127 14.03293,-28.24431571 1.20508,-0.46243006 3.11241,0.104384 4.27992,1.27188741 1.9192,1.9192033 1.85743,2.7043506 -0.69617,8.8489933 -1.54123,3.708607 -2.68548,6.735181 -2.54279,6.725721 0.14269,-0.0095 4.0629,-1.209461 8.71157,-2.666666 11.28036,-3.536027 27.69004,-3.54889 39.07409,-0.03063 39.334375,12.156352 57.945395,56.384125 39.228955,93.224883 -7.25604,14.28252 -21.92562,26.71141 -37.86436,32.08078 -10.541605,3.5512 -29.577195,3.65917 -40.297445,0.22855 z m -6.64412,-39.54753 c -2.4215,-2.917729 -0.13653,-6.471383 4.51857,-7.027403 l 3.53218,-0.421897 V 80.819635 c 0,-11.590854 -0.20725,-12.635714 -2.33333,-11.763322 -4.34431,1.782595 -6.33046,1.338973 -6.73682,-1.504719 -0.48842,-3.417916 9.22637,-11.167412 13.99949,-11.167412 3.05841,0 3.07066,0.07414 3.07066,18.578105 V 93.54039 l 3.66667,0.421897 c 3.09143,0.355708 3.66667,1.049427 3.66667,4.421894 v 3.999999 l -10.79474,0.38394 c -8.65615,0.30788 -11.15028,-0.0444 -12.58935,-1.77843 z m 30.01041,0.43682 c -0.3823,-0.99625 -0.52962,-11.68833 -0.32737,-23.760178 l 0.36771,-21.948817 h 3.33334 c 3.18365,0 3.35093,0.399823 3.7254,8.904277 l 0.39207,8.904275 3.68286,-2.113674 c 4.56677,-2.620964 10.190685,-1.448677 12.342935,2.572843 0.85448,1.596595 1.84726,8.053415 2.20619,14.348488 0.55244,9.689047 0.30277,11.735916 -1.62686,13.337376 -1.66713,1.38358 -2.87625,1.51722 -4.50104,0.49747 -1.68497,-1.05754 -2.38259,-4.095149 -2.88823,-12.576182 -0.568445,-9.534421 -1.031305,-11.251339 -3.141625,-11.653409 -4.16569,-0.793672 -5.49721,2.110841 -6.1917,13.506328 -0.61551,10.099373 -0.89736,10.971633 -3.67263,11.365723 -1.65328,0.23477 -3.31875,-0.38827 -3.70105,-1.38452 z"
     style="fill:#000000;stroke-width:1.33333337" />
</svg>
