<?xml version="1.0" encoding="UTF-8" standalone="no"?>
<svg
   xmlns:dc="http://purl.org/dc/elements/1.1/"
   xmlns:cc="http://creativecommons.org/ns#"
   xmlns:rdf="http://www.w3.org/1999/02/22-rdf-syntax-ns#"
   xmlns:svg="http://www.w3.org/2000/svg"
   xmlns="http://www.w3.org/2000/svg"
   viewBox="0 0 170.66667 170.66667"
   height="170.66667"
   width="170.66667"
   id="svg885"
   version="1.1">
  <metadata
     id="metadata891">
    <rdf:RDF>
      <cc:Work
         rdf:about="">
        <dc:format>image/svg+xml</dc:format>
        <dc:type
           rdf:resource="http://purl.org/dc/dcmitype/StillImage" />
        <dc:title></dc:title>
      </cc:Work>
    </rdf:RDF>
  </metadata>
  <defs
     id="defs889" />
  <path
     id="path895"
     d="m 13,158.9982 v -8.82584 l 4.86496,0.41382 c 8.62142,0.73336 9.7276,9.16648 1.33389,10.16905 -2.41446,0.2884 -3.53218,1.21281 -3.53218,2.92132 0,1.37467 -0.6,2.87023 -1.33334,3.32345 C 13.49574,167.51767 13,164.54258 13,158.9982 Z m 8,-3.33153 C 21,153.8889 20.11111,153 18.33333,153 c -1.77777,0 -2.66666,0.8889 -2.66666,2.66667 0,1.77777 0.88889,2.66667 2.66666,2.66667 1.77778,0 2.66667,-0.8889 2.66667,-2.66667 z m 4.0424,10.51113 c -0.0714,-3.63001 5.54354,-15.84446 7.28366,-15.84446 2.32785,0 7.79066,14.74994 6.09195,16.44865 -0.88523,0.88524 -1.6161,0.58655 -2.18362,-0.89236 -1.12676,-2.93631 -7.1191,-2.86579 -9.37833,0.1104 -1.56118,2.0566 -1.77628,2.07769 -1.81366,0.1778 z m 8.76692,-7.28685 c -0.44513,-1.15997 -0.81851,-2.80997 -0.82974,-3.66667 -0.0272,-2.07789 -2.59934,1.9471 -2.62583,4.10906 C 30.34255,160.25 31.29753,161 32.47599,161 c 1.40602,0 1.86441,-0.72506 1.33333,-2.10905 z m 9.52401,7.85661 C 42.05,166.4122 41,165.2968 41,164.26891 c 0,-1.36545 1.07754,-1.6534 4,-1.06891 4.98101,0.9962 5.46359,-1.70954 0.6325,-3.54632 -4.105,-1.56072 -5.49768,-4.6713 -3.28507,-7.33732 2.09309,-2.52202 9.31924,-2.65222 9.31924,-0.16792 0,1.21715 -1.09812,1.60519 -3.33334,1.1779 C 45.88964,152.8592 45,153.26444 45,154.84456 45,156.03128 46.07864,157 47.4,157 c 5.40783,0 7.62692,6.8214 3.02099,9.28643 -2.68255,1.43565 -3.22381,1.47087 -7.08766,0.46113 z m 15.85264,-0.007 c -0.46895,-0.46832 -0.85264,-3.752 -0.85264,-7.29646 0,-4.8395 -0.49808,-6.44444 -2,-6.44444 -1.1,0 -2,-0.6 -2,-1.33333 0,-0.73333 2.70001,-1.33333 6,-1.33333 3.3,0 6.00001,0.6 6.00001,1.33333 0,0.73333 -0.90001,1.33333 -2,1.33333 -1.50793,0 -2,1.62088 -2,6.58798 0,6.2265 -1.24491,9.05601 -3.14737,7.15356 z m 18.50896,-0.36247 c -0.43768,-0.70819 0.42691,-3.68428 1.92131,-6.61356 C 83.0301,153.0738 83.02337,153 79,153 c -1.83333,0 -3.33333,-0.6 -3.33333,-1.33333 0,-0.73333 2.4,-1.33333 5.33333,-1.33333 2.93333,0 5.33333,0.52534 5.33333,1.16742 0,1.64199 -6.50267,16.16591 -7.23783,16.16591 -0.33263,0 -0.96289,-0.57943 -1.40057,-1.2876 z m 18.90747,0.44556 c -0.51465,-0.51401 -0.93573,-4.43509 -0.93573,-8.71288 V 150.333 h 4.57143 c 2.51428,0 5.51428,0.94285 6.66666,2.09524 2.51359,2.51358 2.73889,8.57244 0.42858,11.52524 -1.84415,2.35698 -9.26065,4.34109 -10.73094,2.87081 z M 105,161 c 1.82556,-3.41109 -0.56789,-8.33992 -3.75663,-7.73601 -1.53018,0.28979 -2.37493,2.01088 -2.65719,5.41377 -0.3531,4.25692 -0.0176,4.98891 2.28642,4.98891 1.48514,0 3.34247,-1.2 4.1274,-2.66667 z m 6.27043,5.7709 c -1.23421,-1.99699 4.53477,-16.43756 6.56676,-16.43756 1.91078,0 5.48983,7.38361 6.7862,14 0.76399,3.8992 0.71716,3.9412 -1.85815,1.66666 -3.32103,-2.93316 -6.99381,-2.98628 -9.08139,-0.13133 -0.91796,1.25539 -1.95546,1.64324 -2.41342,0.90224 z m 8.39624,-7.6922 c 0,-1.05672 -0.6,-2.29214 -1.33333,-2.74536 C 117.6,155.88011 117,155.79563 117,156.1456 c 0,0.34996 -0.36419,1.58538 -0.80932,2.74535 -0.53108,1.38399 -0.0727,2.10905 1.33334,2.10905 1.17846,0 2.14265,-0.86458 2.14265,-1.9213 z m 11.51931,7.66284 c -0.46895,-0.46896 -0.85489,-2.10264 -0.85763,-3.63043 -0.003,-1.52777 -1.20274,-4.74228 -2.66666,-7.14333 -3.14766,-5.16263 -3.22099,-5.63444 -0.87571,-5.63444 0.98229,0 2.53504,1.644 3.45056,3.65334 1.5879,3.48507 1.74909,3.53778 3.49926,1.14426 1.00908,-1.38 2.07419,-3.17402 2.36691,-3.98668 0.29272,-0.81267 1.02189,-1.02006 1.62039,-0.46084 0.59849,0.5592 0.0807,3.12956 -1.1508,5.71189 -1.23143,2.58235 -2.23896,5.8394 -2.23896,7.23791 0,2.74504 -1.76628,4.4894 -3.14736,3.10832 z m 11.48069,0.0421 c -3.47516,-1.40225 -1.69789,-3.99303 2.33333,-3.40137 5.22688,0.76714 5.16238,-1.71619 -0.0921,-3.54792 -3.42631,-1.19442 -4.02292,-2.02922 -3.66667,-5.13043 0.37266,-3.24392 0.99126,-3.70391 4.98106,-3.70391 2.54117,0 4.80977,0.76268 5.13049,1.72483 0.41235,1.23704 -0.36349,1.48928 -2.74343,0.89196 -4.99594,-1.25391 -5.90858,1.85187 -1.04264,3.54815 4.0207,1.40161 4.70934,2.48712 4.12472,6.50173 -0.501,3.44045 -4.66169,4.87748 -9.0247,3.11696 z m -79.0733,-25.6306 C 41.25409,134.00419 24.6794,116.92061 18.81514,95 14.58189,79.17612 17.7021,58.148353 26.29234,44.60958 l 4.05467,-6.390422 3.2846,2.390422 c 4.08575,2.973476 4.09226,3.320021 0.17691,9.419008 -5.7621,8.975709 -7.83745,17.999339 -7.23153,31.442778 0.69261,15.366694 4.55276,24.367984 15.26736,35.601124 27.66105,28.99971 74.95997,21.73607 92.66635,-14.23066 3.77502,-7.66818 4.4582,-10.615151 4.92266,-21.234814 0.84035,-19.213865 -4.767,-32.700806 -18.90782,-45.477603 C 109.30197,25.98847 90.69758,19.687191 77.83292,21.669483 70.506,22.798475 59.66667,26.300467 59.66667,27.538669 c 0,0.545064 2.19122,1.546844 4.86938,2.226178 6.28808,1.595016 8.60417,4.999696 5.50761,8.096258 -2.10374,2.103741 -2.98014,2.052461 -13.9774,-0.817852 -13.6607,-3.565479 -16.39959,-4.789562 -16.39959,-7.329407 0,-3.530624 11.86555,-27.4126124 14.03293,-28.2443154 1.20508,-0.4624301 3.11241,0.104384 4.27991,1.2718874 1.91921,1.919203 1.85744,2.704351 -0.69616,8.848993 -1.54123,3.708607 -2.68548,6.735181 -2.54279,6.725721 0.14269,-0.0095 4.0629,-1.209461 8.71157,-2.666666 11.28036,-3.536027 27.69004,-3.54889 39.07409,-0.03063 C 130.26915,24.192831 149,49.428429 149,78.23178 c 0,18.64655 -7.16433,35.28437 -20.58721,47.80991 -8.62505,8.04846 -19.18479,13.97226 -28.899,16.21179 -9.27387,2.138 -27.55034,1.5781 -35.92042,-1.10044 z m 36.0733,-40.27265 c 0,-0.79912 1.28872,-2.49649 2.86383,-3.77193 l 2.86383,-2.31899 -3.49889,-10.406535 c -1.92439,-5.723593 -3.1777,-10.926223 -2.78514,-11.561399 1.85415,-3.000085 4.44517,-0.627233 6.01855,5.511799 1.55968,6.085527 3.86051,9.051601 3.87859,5 0.004,-0.916667 0.63229,-3.916667 1.396,-6.666667 1.52501,-5.491272 5.26323,-6.915007 5.26323,-2.004545 0,3.534025 -6.43469,23.594697 -8.34126,26.004547 -1.62046,2.04821 -7.65874,2.21672 -7.65874,0.21372 z m -64.7493,-8.281583 c -0.61613,-1.605606 1.1254,-6.734401 6.96495,-20.511804 0.43369,-1.023208 -1.12635,-1.727735 -4.42863,-2 -3.58779,-0.295806 -5.22918,-1.111611 -5.54037,-2.753668 -0.38541,-2.033764 0.70301,-2.333334 8.47768,-2.333334 10.37419,0 10.11655,-1.301153 3.43215,17.333334 C 39.92175,93.20949 36.61456,97.0216 34.91737,92.598807 Z M 61.87973,92.355919 C 58.91087,89.387064 57.92547,82.942535 59.64412,77.73499 61.25245,72.861685 64.59122,70.93404 69,72.333335 c 2.36831,0.751672 2.66667,0.2396 2.66667,-4.576816 0,-4.562532 0.42991,-5.423184 2.70898,-5.423184 2.59017,0 2.6925,0.684382 2.33333,15.604608 l -0.37565,15.604607 -6.22922,0.40426 c -4.1992,0.27252 -6.87942,-0.24593 -8.22438,-1.590891 z M 71,83.000002 c 0,-4.424691 -0.48343,-5.402296 -2.83752,-5.73811 -2.03889,-0.29085 -3.05734,0.471014 -3.6185,2.706864 -1.2897,5.138571 0.4034,9.228275 3.62982,8.767871 C 70.51493,88.402554 71,87.417954 71,83.000002 Z m 10.03277,8.727888 c -0.75136,-1.403918 -1.3661,-3.39903 -1.3661,-4.433583 0,-2.659853 4.06989,-5.969729 8,-6.506072 4.34711,-0.593249 3.06765,-3.098275 -1.63486,-3.200867 -4.66168,-0.101706 -5.84385,-1.335684 -3.72522,-3.888479 2.19753,-2.647857 9.88245,-2.615942 12.09517,0.05023 1.00648,1.212732 1.77074,5.795852 1.82993,10.973808 l 0.10165,8.891363 -6.96724,0.33309 c -5.7065,0.27282 -7.21443,-0.1288 -8.33333,-2.219487 z m 9.34746,-3.451064 c 2.11513,-2.548574 0.0425,-5.072407 -3.15727,-3.84455 -2.26439,0.868926 -2.93979,3.406451 -1.33407,5.01217 1.38795,1.387949 2.6407,1.06227 4.49134,-1.16762 z m 29.39086,4.182335 c -2.42862,-2.926318 -0.60639,-5.154963 2.74735,-3.360094 3.78331,2.024768 7.35122,0.555371 5.13513,-2.114843 -0.90571,-1.091322 -2.43043,-1.984222 -3.38826,-1.984222 -2.54557,0 -5.93197,-3.805814 -5.93197,-6.666667 0,-5.512886 9.09414,-9.039187 13.06666,-5.066667 2.70394,2.703936 1.79394,3.923244 -2.60117,3.485294 -5.48145,-0.5462 -6.37943,2.219041 -1.29606,3.991112 5.25885,1.833241 7.14366,5.446338 5.04695,9.674698 -1.96189,3.956468 -10.10909,5.257978 -12.77863,2.041389 z"
     style="fill:#000000;stroke-width:1.33333337" />
</svg>
